<svg width="20" height="20" viewBox="0 0 20 20" fill="none" xmlns="http://www.w3.org/2000/svg">
<path d="M14.166 7.5013C14.166 6.39623 13.727 5.33643 12.9456 4.55502C12.1642 3.77362 11.1044 3.33464 9.99935 3.33464C8.89428 3.33464 7.83447 3.77362 7.05307 4.55502C6.27167 5.33643 5.83268 6.39623 5.83268 7.5013C5.83268 8.93964 7.21602 11.6938 9.99935 15.5455C12.7827 11.6938 14.166 8.93964 14.166 7.5013ZM9.99935 18.3346C6.11018 13.2596 4.16602 9.6488 4.16602 7.5013C4.16602 5.95421 4.7806 4.47047 5.87456 3.37651C6.96852 2.28255 8.45225 1.66797 9.99935 1.66797C11.5464 1.66797 13.0302 2.28255 14.1241 3.37651C15.2181 4.47047 15.8327 5.95421 15.8327 7.5013C15.8327 9.6488 13.8885 13.2596 9.99935 18.3346ZM9.99935 10.8346C9.11529 10.8346 8.26745 10.4834 7.64233 9.85833C7.0172 9.2332 6.66602 8.38536 6.66602 7.5013C6.66602 6.61725 7.0172 5.7694 7.64233 5.14428C8.26745 4.51916 9.11529 4.16797 9.99935 4.16797C10.8834 4.16797 11.7313 4.51916 12.3564 5.14428C12.9815 5.7694 13.3327 6.61725 13.3327 7.5013C13.3327 8.38536 12.9815 9.2332 12.3564 9.85833C11.7313 10.4834 10.8834 10.8346 9.99935 10.8346ZM9.99935 9.16797C10.4414 9.16797 10.8653 8.99237 11.1779 8.67981C11.4904 8.36725 11.666 7.94333 11.666 7.5013C11.666 7.05927 11.4904 6.63535 11.1779 6.32279C10.8653 6.01023 10.4414 5.83464 9.99935 5.83464C9.55732 5.83464 9.1334 6.01023 8.82084 6.32279C8.50828 6.63535 8.33268 7.05927 8.33268 7.5013C8.33268 7.94333 8.50828 8.36725 8.82084 8.67981C9.1334 8.99237 9.55732 9.16797 9.99935 9.16797Z" fill="#252525"/>
</svg>
