<svg xmlns="http://www.w3.org/2000/svg" xmlns:xlink="http://www.w3.org/1999/xlink" width="502" height="391" fill="none" xmlns:v="https://vecta.io/nano"><style><![CDATA[.B{stroke-linecap:round}.C{stroke-miterlimit:10}.D{stroke-linejoin:round}.E{stroke:#1e1e1c}.F{stroke-width:5.138}.G{fill:#1e1e1c}]]></style><g clip-path="url(#A)"><g class="E C D"><g stroke-width="4.11" class="B"><path d="M262.6 66.5s-10.9-4.6-15.5-8.9-19.7-19.5-23.5-24.3-15.1-23-15.1-23m-31.9.3L199 46.7c1.9 3.1 25.4 34.2 25.4 34.2"/></g><g class="F"><path d="M377.2 302.3s16.8.8 25.9 4.4m-30.8 22.2s16.8 4.1 23.5 4.1M46.6 186.5v17.2" class="B"/><path d="M37.2 194.6l18.3-.3" class="B"/><path d="M53.2 175.9l-.7 7.9 6.2 5.1-7.8 1.8-2.8 7.4-4.2-6.8-8-.5 5.2-6-2-7.8 7.3 3.2 6.8-4.3z"/></g></g><g fill="#9277aa"><path d="M75.3 236.5c.7.9 7.9 4.1 7.9 4.1l2.4 9.7 8-7.3s5.6 2.9 5.3 1.7-3.8-11.6-3.8-11.6l2.9-4.6-9.9-.5-4.5-3-1.4 8.5-6.9 3zm50.1 27.8l5.9-2.6c1-.2 2.8-.5 3.9 1.3s3.7 3.4 1.9 5-.9 1.6-3.5 2.6-3.1 2.7-4 1.7-3.7-5.3-3.9-5.8-.3-2.2-.3-2.2zm7.2-30.8s1-8.2 2.8-11.8c1.8-3.7-1.7-4.6 5-6.9s12.9-.8 15-.3 2.2-2 5.1 1.2 5.1 9.1 7.6 14.1 4.8 8.2 5.6 9.4 3.5.9 7.2.3 6.4.6 4.8-4.6-4.2-18.9-3.3-22-.4-7.5 6.5-10.3 13.1-3.8 15.5-2.7 4.6-1 7.4 6.7l5.8 16.4c.4.7 2.4 3.4 3 3s-1.3-6.8 2.7-9.2c3.9-2.4 3.9-4.8 9-5.6s7.6-2.1 11.1-1c3.6 1.1 6.3-1.1 8.2 3.6s4.7 14.8 5.8 23.8c1.2 9 2.8 14.2 3 20.8.3 6.6 3.6 7.2-.1 9.7s-8.3 5-13.6 5.5c-5.2.5-9-1.1-10.3-1.7s-4.8-4.7-5.5-3.7-.8 2.9-2.7 5.7 1.1 4.4-4.5 5.8-8.9 3.2-13.3 3.3-5.5 2.1-7.8-.6-5-8.7-5.6-10.4c-.6-1.6.3-5.1-2.4-5.3-2.6-.1-14.7.5-14.2 1.4s5 4.8 3.7 8.8.1 4.8-1.5 8.9 3 3.1-2.7 6.1c-5.8 2.9-5.6 4-11.6 4.8s-9.5.6-12.5-1.4-4.8-3.4-7.1-10-8.9-28.6-10.1-33.2c-.9-4.5-6-18.6-6-18.6zm89.5-37.9s-1.6 8.6-.9 8.5 11.4-4.9 11.4-4.9 1 2.8 3.3 1.9 1.7-7.7 1.5-8.2 2.8-5.9 2.1-6.4-10.2.7-10.6-.5c-.4-1.1-4-6.1-4-5.6 0 .6-1.3 6.4-1.7 7.3s-5.6 1.5-5.4 2c.3.7 4.3 5.9 4.3 5.9z"/></g><g class="C D E F"><path d="M96.9 300s3.9 11.8 9.3 14.7c2 1 4.7 1 7.6.3 0 0 9.7-2.1 15.7-8.1 3.1-3.1 1.2-11.1-1.3-17.6-2-5.1-10.1-28.3-16.5-34.4-5.6-5.4-11.4-3.3-17.3-.8-6.2 2.6-8.3 7.8-8.1 13s6.9 22.9 6.9 22.9l3.7 10zm-14.2-77.4l7.5 6.6 9.6-2.3-4 9.1 5.2 8.4-9.9-1-6.4 7.6-2.1-9.7-9.2-3.8 8.6-5 .7-9.9z"/><g class="B"><path d="M174.8 241.7s-5.2-11-10-19.7-11.3-11.3-22.5-7.2c-13.8 5-8.2 22.9-8.2 22.9s15.4 48.1 18.9 53.4 10.4 7.1 17.2 5.7c3.5-.7 12.3-3.8 14.1-10 1.5-5.1-1.8-16.5-1.8-16.5m-13.1-26.2s15.4-6.8 25.1-7.7M177 270.1s16.8-3.8 22.9-6.8m-5.9 3.5s3.3 12.6 8.4 16.1c1.8 1.2 4.5 1.5 7.5 1.1 0 0 9.9-1.1 16.5-6.4 3.4-2.8 2.4-10.9.6-17.6-1.4-5.3-12.8-49.7-18.5-56.5-5-5.9-11-4.5-17.1-2.7-6.4 1.9-9 6.8-9.5 12.1-.4 5.3 4.4 23.5 4.4 23.5"/></g><path d="M227.9 256.4s2.2 12.2 7.2 15.9c1.8 1.3 4.5 1.6 7.5 1.4 0 0 9.9-.7 16.7-5.8 3.5-2.6 2.8-10.8 1.2-17.6-1.2-5.3-6-29.5-11.4-36.4-4.8-6.1-10.8-4.8-17-3.2-6.5 1.7-9.3 6.5-9.9 11.8-.6 5.2 3.6 23.6 3.6 23.6l2.1 10.3zm-3-78.7l6.4 7.7 9.9-1-5.3 8.4 4 9.2-9.6-2.4-7.5 6.6-.7-10-8.6-5 9.3-3.7 2.1-9.8zm-98.3 91.2s-2.1-2 0-4.5c2-2.5 8.2-3.9 8.2-3.9s2.9 5.6 2.8 7.6-7 5.8-8 5.4c-1.1-.6-3-4.6-3-4.6z"/></g><use xlink:href="#B" fill="#f2ee98"/><g fill="#efd378"><use xlink:href="#C"/><path d="M46.3 134.3c1 0 1.7-.8 1.7-1.7 0-1-.8-1.7-1.7-1.7-1 0-1.7.8-1.7 1.7 0 1 .8 1.7 1.7 1.7zm13.4 0c.9 0 1.7-.7 1.7-1.7 0-.9-.7-1.7-1.7-1.7-.9 0-1.7.7-1.7 1.7.1.9.8 1.7 1.7 1.7zm13.4-.1a1.6 1.6 0 1 0 0-3.2 1.58 1.58 0 0 0-1.6 1.6c0 .9.8 1.6 1.6 1.6z"/><use xlink:href="#D"/><use xlink:href="#E"/><path d="M113.4 134c.8 0 1.4-.6 1.4-1.4s-.6-1.4-1.4-1.4-1.4.6-1.4 1.4c-.1.8.6 1.4 1.4 1.4z"/><use xlink:href="#F"/><use xlink:href="#G"/><path d="M39.6 147.8a1.8 1.8 0 1 0 0-3.6 1.8 1.8 0 1 0 0 3.6zm13.4 0c1 0 1.7-.8 1.7-1.7 0-1-.8-1.7-1.7-1.7-1 0-1.7.8-1.7 1.7s.8 1.7 1.7 1.7zm13.4-.1c.9 0 1.7-.7 1.7-1.7 0-.9-.7-1.7-1.7-1.7-.9 0-1.7.7-1.7 1.7.1.9.8 1.7 1.7 1.7zm13.5-.1a1.6 1.6 0 1 0 0-3.2 1.6 1.6 0 1 0 0 3.2zm13.4 0a1.6 1.6 0 1 0 0-3.2 1.6 1.6 0 1 0 0 3.2zm13.4-.1a1.54 1.54 0 0 0 1.5-1.5 1.54 1.54 0 0 0-1.5-1.5 1.54 1.54 0 0 0-1.5 1.5 1.47 1.47 0 0 0 1.5 1.5z"/><use xlink:href="#H"/><path d="M133.5 147.3c.7 0 1.3-.6 1.3-1.3s-.6-1.3-1.3-1.3-1.3.6-1.3 1.3c-.1.7.5 1.3 1.3 1.3zm13.4 0c.7 0 1.3-.6 1.3-1.3s-.6-1.3-1.3-1.3-1.3.6-1.3 1.3.6 1.3 1.3 1.3zm-114 14.1c1.1 0 2-.9 2-2s-.9-2-2-2-2 .9-2 2c.1 1.1.9 2 2 2zm13.4-.1c1.1 0 1.9-.9 1.9-1.9 0-1.1-.9-1.9-1.9-1.9-1.1 0-1.9.9-1.9 1.9 0 1.1.9 1.9 1.9 1.9zm13.4-.1a1.8 1.8 0 1 0 0-3.6 1.8 1.8 0 1 0 0 3.6zm13.4 0a1.8 1.8 0 1 0 0-3.6 1.79 1.79 0 0 0-1.8 1.8c.1 1 .9 1.8 1.8 1.8zm13.5-.1c.9 0 1.7-.8 1.7-1.7s-.8-1.7-1.7-1.7-1.7.8-1.7 1.7c-.1 1 .7 1.7 1.7 1.7zm13.4-.1a1.6 1.6 0 1 0 0-3.2 1.58 1.58 0 0 0-1.6 1.6c-.1.9.7 1.6 1.6 1.6zm13.4 0a1.6 1.6 0 1 0 0-3.2 1.6 1.6 0 1 0 0 3.2zm13.4-.1a1.54 1.54 0 0 0 1.5-1.5 1.54 1.54 0 0 0-1.5-1.5 1.54 1.54 0 0 0-1.5 1.5 1.47 1.47 0 0 0 1.5 1.5zm13.4 0c.8 0 1.4-.6 1.4-1.4s-.6-1.5-1.4-1.5a1.47 1.47 0 0 0-1.5 1.5c0 .7.7 1.4 1.5 1.4zm13.4-.1c.8 0 1.4-.6 1.4-1.4s-.6-1.4-1.4-1.4-1.4.6-1.4 1.4.6 1.4 1.4 1.4zm13.4 0c.7 0 1.3-.6 1.3-1.3s-.6-1.3-1.3-1.3-1.3.6-1.3 1.3c-.1.7.5 1.3 1.3 1.3z"/><use xlink:href="#I"/><path d="M193.8 160.6c.7 0 1.2-.5 1.2-1.2s-.5-1.2-1.2-1.2-1.2.5-1.2 1.2.5 1.2 1.2 1.2z"/><use xlink:href="#J"/><path d="M220.6 160.5a1.11 1.11 0 0 0 1.1-1.1 1.11 1.11 0 0 0-1.1-1.1 1.11 1.11 0 0 0-1.1 1.1 1.11 1.11 0 0 0 1.1 1.1zm13.4 0c.6 0 1-.5 1-1 0-.6-.5-1-1-1-.6 0-1 .5-1 1s.4 1 1 1z"/><use xlink:href="#K"/><use xlink:href="#L"/><path d="M53 174.9c1.2 0 2.1-.9 2.1-2.1s-.9-2.1-2.1-2.1-2.1.9-2.1 2.1 1 2.1 2.1 2.1z"/><use xlink:href="#M"/><path d="M79.9 174.8c1.1 0 2-.9 2-2s-.9-2-2-2-2 .9-2 2 .9 2 2 2z"/><use xlink:href="#N"/><use xlink:href="#O"/><use xlink:href="#P"/><path d="M133.5 174.5c.9 0 1.7-.7 1.7-1.7 0-.9-.7-1.7-1.7-1.7-.9 0-1.7.7-1.7 1.7 0 .9.7 1.7 1.7 1.7zm13.4-.1a1.6 1.6 0 1 0 0-3.2 1.6 1.6 0 1 0 0 3.2z"/><use xlink:href="#Q"/><use xlink:href="#R"/><path d="M187.1 174.2c.8 0 1.4-.6 1.4-1.4s-.6-1.4-1.4-1.4-1.4.6-1.4 1.4.6 1.4 1.4 1.4zm13.4 0c.7 0 1.3-.6 1.3-1.3s-.6-1.3-1.3-1.3-1.3.6-1.3 1.3.6 1.3 1.3 1.3zm13.4-.1c.7 0 1.3-.6 1.3-1.3s-.6-1.3-1.3-1.3-1.3.6-1.3 1.3.6 1.3 1.3 1.3zm13.4-.1c.7 0 1.2-.5 1.2-1.2s-.5-1.2-1.2-1.2-1.2.5-1.2 1.2.5 1.2 1.2 1.2z"/><use xlink:href="#S"/><path d="M254.1 173.9a1.11 1.11 0 0 0 1.1-1.1 1.11 1.11 0 0 0-1.1-1.1 1.11 1.11 0 0 0-1.1 1.1 1.11 1.11 0 0 0 1.1 1.1zm13.4 0c.6 0 1-.5 1-1 0-.6-.5-1-1-1-.6 0-1 .5-1 1s.4 1 1 1zm13.4-.1c.5 0 1-.4 1-1 0-.5-.4-1-1-1-.5 0-1 .4-1 1 .1.6.5 1 1 1z"/><use xlink:href="#T"/><path d="M307.7 173.7c.5 0 .9-.4.9-.9s-.4-.9-.9-.9-.9.4-.9.9c.1.5.5.9.9.9zm13.4-.1c.5 0 .8-.4.8-.8 0-.5-.4-.8-.8-.8-.5 0-.8.4-.8.8 0 .5.4.8.8.8zm13.5 0c.4 0 .8-.3.8-.8 0-.4-.3-.8-.8-.8-.4 0-.8.3-.8.8 0 .4.3.8.8.8zm13.4 0a.7.7 0 1 0 0-1.4.68.68 0 0 0-.7.7c-.1.3.2.7.7.7z"/><use xlink:href="#U"/><use xlink:href="#V"/><path d="M46.3 188.5a2.3 2.3 0 1 0 0-4.6 2.26 2.26 0 0 0-2.3 2.3c.1 1.3 1.1 2.3 2.3 2.3zm13.4-.1a2.22 2.22 0 0 0 2.2-2.2 2.22 2.22 0 0 0-2.2-2.2 2.22 2.22 0 0 0-2.2 2.2 2.22 2.22 0 0 0 2.2 2.2zm13.4-.1c1.2 0 2.1-.9 2.1-2.1s-.9-2.1-2.1-2.1-2.1.9-2.1 2.1 1 2.1 2.1 2.1zm13.5 0c1.1 0 2-.9 2-2s-.9-2-2-2-2 .9-2 2c-.1 1.1.8 2 2 2zm13.4-.1c1.1 0 2-.9 2-2s-.9-2-2-2-2 .9-2 2 .9 2 2 2zm13.4-.1c1 0 1.9-.8 1.9-1.9 0-1-.8-1.9-1.9-1.9-1 0-1.9.8-1.9 1.9s.8 1.9 1.9 1.9zm13.4-.1a1.8 1.8 0 1 0 0-3.6 1.79 1.79 0 0 0-1.8 1.8c-.1 1 .8 1.8 1.8 1.8zm13.4 0c1 0 1.7-.8 1.7-1.7 0-1-.8-1.7-1.7-1.7-1 0-1.7.8-1.7 1.7-.1.9.7 1.7 1.7 1.7zm13.4-.1c.9 0 1.7-.8 1.7-1.7s-.8-1.7-1.7-1.7-1.7.8-1.7 1.7c0 1 .7 1.7 1.7 1.7zm13.4-.1a1.6 1.6 0 1 0 0-3.2 1.6 1.6 0 1 0 0 3.2zm13.4 0a1.6 1.6 0 1 0 0-3.2 1.6 1.6 0 1 0 0 3.2zm13.4-.1a1.54 1.54 0 0 0 1.5-1.5 1.54 1.54 0 0 0-1.5-1.5 1.54 1.54 0 0 0-1.5 1.5 1.54 1.54 0 0 0 1.5 1.5zm13.4-.1c.8 0 1.4-.6 1.4-1.4s-.6-1.4-1.4-1.4-1.4.6-1.4 1.4.6 1.4 1.4 1.4zm13.4 0c.8 0 1.4-.6 1.4-1.4s-.6-1.4-1.4-1.4-1.4.6-1.4 1.4.6 1.4 1.4 1.4zm13.4-.1c.7 0 1.3-.6 1.3-1.3s-.6-1.3-1.3-1.3-1.3.6-1.3 1.3.6 1.3 1.3 1.3zm13.4 0c.7 0 1.2-.5 1.2-1.2s-.5-1.2-1.2-1.2-1.2.5-1.2 1.2c0 .6.5 1.2 1.2 1.2zm13.4-.1c.6 0 1.2-.5 1.2-1.2 0-.6-.5-1.2-1.2-1.2-.6 0-1.2.5-1.2 1.2.1.7.6 1.2 1.2 1.2zm13.4-.1a1.11 1.11 0 0 0 1.1-1.1 1.11 1.11 0 0 0-1.1-1.1 1.11 1.11 0 0 0-1.1 1.1 1.11 1.11 0 0 0 1.1 1.1zm13.4 0a1.11 1.11 0 0 0 1.1-1.1 1.11 1.11 0 0 0-1.1-1.1 1.11 1.11 0 0 0-1.1 1.1c.1.6.5 1.1 1.1 1.1zm13.4-.1a1 1 0 1 0 0-2 .94.94 0 0 0-1 1c0 .6.5 1 1 1zm13.4 0c.5 0 1-.4 1-1 0-.5-.4-1-1-1-.5 0-1 .4-1 1 .1.6.5 1 1 1zm13.4-.1c.5 0 .9-.4.9-.9s-.4-.9-.9-.9-.9.4-.9.9c.1.5.5.9.9.9zm13.5 0c.5 0 .9-.4.9-.9s-.4-.9-.9-.9-.9.4-.9.9.4.9.9.9zm13.4-.1c.4 0 .8-.3.8-.8 0-.4-.3-.8-.8-.8-.4 0-.8.3-.8.8s.3.8.8.8zm13.4 0a.7.7 0 1 0 0-1.4.68.68 0 0 0-.7.7c-.1.3.3.7.7.7z"/><use xlink:href="#W"/><path d="M394.9 186.9a.65.65 0 0 0 .6-.6.65.65 0 0 0-.6-.6.65.65 0 0 0-.6.6c-.1.3.2.6.6.6zm13.4-.1a.65.65 0 0 0 .6-.6.65.65 0 0 0-.6-.6.65.65 0 0 0-.6.6c0 .4.3.6.6.6z"/><use xlink:href="#X"/><path d="M435.1 186.7a.5.5 0 1 0 0-1 .5.5 0 1 0 0 1zm13.4 0a.5.5 0 1 0 0-1 .5.5 0 1 0 0 1z"/><use xlink:href="#Y"/><path d="M39.6 202.2c1.4 0 2.6-1.1 2.6-2.6 0-1.4-1.1-2.6-2.6-2.6-1.4 0-2.6 1.1-2.6 2.6.1 1.4 1.2 2.6 2.6 2.6z"/><use xlink:href="#Z"/><path d="M66.4 202c1.3 0 2.4-1.1 2.4-2.4s-1.1-2.4-2.4-2.4-2.4 1.1-2.4 2.4c.1 1.3 1.1 2.4 2.4 2.4z"/><use xlink:href="#a"/><path d="M93.3 201.9a2.22 2.22 0 0 0 2.2-2.2 2.22 2.22 0 0 0-2.2-2.2 2.22 2.22 0 0 0-2.2 2.2c-.1 1.2.9 2.2 2.2 2.2zm13.4-.1a2.22 2.22 0 0 0 2.2-2.2 2.22 2.22 0 0 0-2.2-2.2 2.22 2.22 0 0 0-2.2 2.2 2.22 2.22 0 0 0 2.2 2.2z"/><use xlink:href="#b"/><path d="M133.5 201.6c1.1 0 2-.9 2-2s-.9-2-2-2-2 .9-2 2 .9 2 2 2zm13.4 0c1.1 0 1.9-.9 1.9-1.9 0-1.1-.9-1.9-1.9-1.9-1.1 0-1.9.9-1.9 1.9-.1 1 .8 1.9 1.9 1.9z"/><use xlink:href="#c"/><path d="M173.7 201.4a1.8 1.8 0 1 0 0-3.6 1.8 1.8 0 1 0 0 3.6zm13.4-.1c.9 0 1.7-.8 1.7-1.7s-.8-1.7-1.7-1.7-1.7.8-1.7 1.7c0 1 .7 1.7 1.7 1.7z"/><use xlink:href="#d"/><path d="M213.9 201.2a1.6 1.6 0 1 0 0-3.2 1.6 1.6 0 1 0 0 3.2zm13.4 0a1.54 1.54 0 0 0 1.5-1.5 1.54 1.54 0 0 0-1.5-1.5 1.54 1.54 0 0 0-1.5 1.5 1.54 1.54 0 0 0 1.5 1.5zm13.4-.1c.8 0 1.4-.6 1.4-1.4s-.6-1.5-1.4-1.5a1.47 1.47 0 0 0-1.5 1.5c.1.7.7 1.4 1.5 1.4zm13.4-.1c.8 0 1.4-.6 1.4-1.4s-.6-1.4-1.4-1.4-1.4.6-1.4 1.4.6 1.4 1.4 1.4zm13.4 0c.7 0 1.3-.6 1.3-1.3s-.6-1.3-1.3-1.3-1.3.6-1.3 1.3.6 1.3 1.3 1.3zm13.4-.1c.7 0 1.3-.6 1.3-1.3s-.6-1.3-1.3-1.3-1.3.6-1.3 1.3c.1.7.6 1.3 1.3 1.3zm13.4-.1c.7 0 1.2-.5 1.2-1.2s-.5-1.2-1.2-1.2-1.2.5-1.2 1.2.6 1.2 1.2 1.2zm13.4 0c.6 0 1.2-.5 1.2-1.2 0-.6-.5-1.2-1.2-1.2-.6 0-1.2.5-1.2 1.2.1.7.6 1.2 1.2 1.2zm13.4-.1a1.11 1.11 0 0 0 1.1-1.1 1.11 1.11 0 0 0-1.1-1.1 1.11 1.11 0 0 0-1.1 1.1 1.11 1.11 0 0 0 1.1 1.1z"/><use xlink:href="#e"/><path d="M348 200.6c.5 0 1-.4 1-1 0-.5-.4-1-1-1-.5 0-1 .4-1 1a.94.94 0 0 0 1 1zm13.4 0c.5 0 .9-.4.9-.9s-.4-.9-.9-.9-.9.4-.9.9c-.1.4.3.9.9.9zm13.4-.1c.5 0 .9-.4.9-.9s-.4-.9-.9-.9-.9.4-.9.9.4.9.9.9zm13.4-.1c.5 0 .8-.4.8-.8 0-.5-.4-.8-.8-.8-.5 0-.8.4-.8.8 0 .5.3.8.8.8zm13.4 0c.4 0 .8-.3.8-.8 0-.4-.3-.8-.8-.8-.4 0-.8.3-.8.8s.3.8.8.8zm13.4-.1a.7.7 0 1 0 0-1.4.7.7 0 1 0 0 1.4zm13.4 0a.7.7 0 1 0 0-1.4.7.7 0 1 0 0 1.4zm13.4 0a.65.65 0 0 0 .6-.6.65.65 0 0 0-.6-.6.65.65 0 0 0-.6.6c0 .3.2.6.6.6zm13.4-.1a.65.65 0 0 0 .6-.6.65.65 0 0 0-.6-.6.65.65 0 0 0-.6.6.65.65 0 0 0 .6.6zm13.4-.1a.5.5 0 1 0 0-1 .5.5 0 1 0 0 1zm13.4 0a.5.5 0 1 0 0-1 .5.5 0 1 0 0 1zm13.4 0c.2 0 .4-.2.4-.4s-.2-.4-.4-.4-.4.2-.4.4.2.4.4.4z"/><use xlink:href="#f"/><path d="M59.7 215.6a2.65 2.65 0 0 0 2.6-2.6 2.65 2.65 0 0 0-2.6-2.6 2.65 2.65 0 0 0-2.6 2.6c0 1.5 1.2 2.6 2.6 2.6zm13.4-.1c1.4 0 2.5-1.1 2.5-2.5s-1.1-2.5-2.5-2.5-2.5 1.1-2.5 2.5c.1 1.4 1.2 2.5 2.5 2.5zm13.5 0c1.3 0 2.4-1.1 2.4-2.4s-1.1-2.4-2.4-2.4-2.4 1.1-2.4 2.4c-.1 1.3 1 2.4 2.4 2.4z"/><use xlink:href="#g"/><use xlink:href="#h"/><path d="M126.8 215.2a2.22 2.22 0 0 0 2.2-2.2 2.22 2.22 0 0 0-2.2-2.2 2.22 2.22 0 0 0-2.2 2.2 2.22 2.22 0 0 0 2.2 2.2z"/><use xlink:href="#i"/><path d="M153.6 215.1c1.1 0 2-.9 2-2s-.9-2-2-2-2 .9-2 2c-.1 1.1.8 2 2 2zm13.4-.1c1.1 0 2-.9 2-2s-.9-2-2-2-2 .9-2 2 .9 2 2 2zm13.4-.1c1 0 1.9-.8 1.9-1.9 0-1-.8-1.9-1.9-1.9s-1.9.8-1.9 1.9.8 1.9 1.9 1.9zm13.4 0a1.8 1.8 0 1 0 0-3.6 1.79 1.79 0 0 0-1.8 1.8c0 .9.8 1.8 1.8 1.8zm13.4-.1c1 0 1.7-.8 1.7-1.7 0-1-.8-1.7-1.7-1.7-1 0-1.7.8-1.7 1.7s.7 1.7 1.7 1.7zm13.4-.1c.9 0 1.7-.7 1.7-1.7 0-.9-.7-1.7-1.7-1.7-.9 0-1.7.7-1.7 1.7s.8 1.7 1.7 1.7zm13.4-.1a1.6 1.6 0 1 0 0-3.2 1.6 1.6 0 1 0 0 3.2zm13.4 0a1.6 1.6 0 1 0 0-3.2 1.58 1.58 0 0 0-1.6 1.6c.1.9.8 1.6 1.6 1.6zm13.4-.1a1.54 1.54 0 0 0 1.5-1.5 1.54 1.54 0 0 0-1.5-1.5 1.54 1.54 0 0 0-1.5 1.5 1.47 1.47 0 0 0 1.5 1.5zm13.4-.1c.8 0 1.4-.6 1.4-1.4s-.6-1.4-1.4-1.4-1.4.6-1.4 1.4.6 1.4 1.4 1.4zm13.4 0c.7 0 1.3-.6 1.3-1.3s-.6-1.3-1.3-1.3-1.3.6-1.3 1.3.6 1.3 1.3 1.3zm13.4-.1c.7 0 1.3-.6 1.3-1.3s-.6-1.3-1.3-1.3-1.3.6-1.3 1.3c0 .8.6 1.3 1.3 1.3zm13.4 0c.7 0 1.2-.5 1.2-1.2s-.5-1.2-1.2-1.2-1.2.5-1.2 1.2c0 .6.6 1.2 1.2 1.2zm13.4-.1c.6 0 1.2-.5 1.2-1.2 0-.6-.5-1.2-1.2-1.2-.6 0-1.2.5-1.2 1.2.1.7.6 1.2 1.2 1.2zm13.5-.1a1.11 1.11 0 0 0 1.1-1.1 1.11 1.11 0 0 0-1.1-1.1 1.11 1.11 0 0 0-1.1 1.1c-.1.7.4 1.1 1.1 1.1zm13.4 0c.6 0 1-.5 1-1 0-.6-.5-1-1-1-.6 0-1 .5-1 1-.1.5.4 1 1 1zm13.4-.1a1 1 0 1 0 0-2 1 1 0 1 0 0 2zm13.4 0c.5 0 .9-.4.9-.9s-.4-.9-.9-.9-.9.4-.9.9c-.1.4.4.9.9.9zm13.4-.1c.5 0 .9-.4.9-.9s-.4-.9-.9-.9-.9.4-.9.9.4.9.9.9zm13.4 0c.5 0 .8-.4.8-.8 0-.5-.4-.8-.8-.8-.5 0-.8.4-.8.8s.3.8.8.8zm13.4-.1c.4 0 .8-.3.8-.8 0-.4-.3-.8-.8-.8-.4 0-.8.3-.8.8s.4.8.8.8zm13.4 0a.7.7 0 1 0 0-1.4.68.68 0 0 0-.7.7c-.1.3.3.7.7.7zm13.4-.1a.7.7 0 1 0 0-1.4.7.7 0 1 0 0 1.4zm13.4 0a.65.65 0 0 0 .6-.6.65.65 0 0 0-.6-.6.65.65 0 0 0-.6.6.65.65 0 0 0 .6.6zm13.4-.1a.65.65 0 0 0 .6-.6.65.65 0 0 0-.6-.6.65.65 0 0 0-.6.6c0 .4.3.6.6.6zm13.4 0a.65.65 0 0 0 .6-.6.65.65 0 0 0-.6-.6.65.65 0 0 0-.6.6c.1.3.3.6.6.6zM39.6 229.4a3.01 3.01 0 0 0 3-3 3.01 3.01 0 0 0-3-3 3.01 3.01 0 0 0-3 3c.1 1.7 1.4 3 3 3zm13.4-.1c1.6 0 2.9-1.3 2.9-2.9s-1.3-2.9-2.9-2.9-2.9 1.3-2.9 2.9c.1 1.6 1.4 2.9 2.9 2.9zm13.4-.1c1.5 0 2.8-1.2 2.8-2.8 0-1.5-1.2-2.8-2.8-2.8-1.5 0-2.8 1.2-2.8 2.8.1 1.6 1.3 2.8 2.8 2.8z"/><use xlink:href="#j"/><path d="M93.3 229a2.65 2.65 0 0 0 2.6-2.6 2.65 2.65 0 0 0-2.6-2.6 2.65 2.65 0 0 0-2.6 2.6c0 1.5 1.1 2.6 2.6 2.6zm13.4 0c1.4 0 2.5-1.1 2.5-2.5s-1.1-2.5-2.5-2.5-2.5 1.1-2.5 2.5c-.1 1.3 1.1 2.5 2.5 2.5z"/><use xlink:href="#k"/><path d="M133.5 228.8a2.3 2.3 0 1 0 0-4.6 2.26 2.26 0 0 0-2.3 2.3c-.1 1.2 1 2.3 2.3 2.3zm13.4-.1a2.3 2.3 0 1 0 0-4.6 2.3 2.3 0 1 0 0 4.6zm13.4 0a2.22 2.22 0 0 0 2.2-2.2 2.22 2.22 0 0 0-2.2-2.2 2.22 2.22 0 0 0-2.2 2.2c0 1.2.9 2.2 2.2 2.2zm13.4-.1c1.2 0 2.1-.9 2.1-2.1s-.9-2.1-2.1-2.1-2.1.9-2.1 2.1c0 1.1.9 2.1 2.1 2.1zm13.4-.1c1.1 0 2.1-.9 2.1-2.1s-.9-2.1-2.1-2.1-2.1.9-2.1 2.1.9 2.1 2.1 2.1zm13.4-.1c1.1 0 2-.9 2-2s-.9-2-2-2-2 .9-2 2 .9 2 2 2zm13.4 0c1.1 0 1.9-.9 1.9-1.9 0-1.1-.9-1.9-1.9-1.9-1.1 0-1.9.9-1.9 1.9s.8 1.9 1.9 1.9zm13.4-.1a1.8 1.8 0 1 0 0-3.6 1.79 1.79 0 0 0-1.8 1.8c0 .9.8 1.8 1.8 1.8zm13.4-.1a1.8 1.8 0 1 0 0-3.6 1.8 1.8 0 1 0 0 3.6zm13.4-.1c.9 0 1.7-.8 1.7-1.7s-.8-1.7-1.7-1.7-1.7.8-1.7 1.7c0 1 .8 1.7 1.7 1.7zm13.4 0a1.6 1.6 0 1 0 0-3.2 1.58 1.58 0 0 0-1.6 1.6c0 .8.7 1.6 1.6 1.6zm13.4-.1a1.6 1.6 0 1 0 0-3.2 1.6 1.6 0 1 0 0 3.2zm13.4-.1a1.54 1.54 0 0 0 1.5-1.5 1.54 1.54 0 0 0-1.5-1.5 1.54 1.54 0 0 0-1.5 1.5 1.47 1.47 0 0 0 1.5 1.5zm13.4 0c.8 0 1.4-.6 1.4-1.4s-.6-1.5-1.4-1.5a1.47 1.47 0 0 0-1.5 1.5c.1.7.7 1.4 1.5 1.4zm13.4-.1c.8 0 1.4-.6 1.4-1.4s-.6-1.4-1.4-1.4-1.4.6-1.4 1.4c.1.8.7 1.4 1.4 1.4zm13.5 0c.7 0 1.3-.6 1.3-1.3s-.6-1.3-1.3-1.3-1.3.6-1.3 1.3c-.1.7.5 1.3 1.3 1.3zm13.4-.1c.7 0 1.2-.5 1.2-1.2s-.5-1.2-1.2-1.2-1.2.5-1.2 1.2c-.1.6.5 1.2 1.2 1.2zm13.4-.1c.7 0 1.2-.5 1.2-1.2s-.5-1.2-1.2-1.2-1.2.5-1.2 1.2.5 1.2 1.2 1.2zm13.4 0a1.11 1.11 0 0 0 1.1-1.1 1.11 1.11 0 0 0-1.1-1.1 1.11 1.11 0 0 0-1.1 1.1 1.11 1.11 0 0 0 1.1 1.1zm13.4-.1a1.11 1.11 0 0 0 1.1-1.1 1.11 1.11 0 0 0-1.1-1.1 1.11 1.11 0 0 0-1.1 1.1 1.11 1.11 0 0 0 1.1 1.1zm13.4 0c.6 0 1-.5 1-1 0-.6-.5-1-1-1-.6 0-1 .5-1 1-.1.5.4 1 1 1zm13.4-.1c.5 0 1-.4 1-1 0-.5-.4-1-1-1-.5 0-1 .4-1 1a.94.94 0 0 0 1 1zm13.4 0c.5 0 .9-.4.9-.9s-.4-.9-.9-.9-.9.4-.9.9.4.9.9.9zm13.4-.1c.5 0 .9-.4.9-.9s-.4-.9-.9-.9-.9.4-.9.9.4.9.9.9zm13.4 0c.5 0 .8-.4.8-.8 0-.5-.4-.8-.8-.8-.5 0-.8.4-.8.8s.3.8.8.8zm13.4-.1a.7.7 0 1 0 0-1.4.7.7 0 1 0 0 1.4zm13.4-.1a.7.7 0 1 0 0-1.4.7.7 0 1 0 0 1.4z"/><use xlink:href="#l"/><path d="M59.7 242.9c1.7 0 3-1.3 3-3s-1.3-3-3-3-3 1.3-3 3a3.08 3.08 0 0 0 3 3z"/><use xlink:href="#m"/><use xlink:href="#n"/><path d="M100 242.6a2.7 2.7 0 1 0 0-5.4 2.69 2.69 0 0 0-2.7 2.7c-.1 1.4 1.2 2.7 2.7 2.7zm13.4-.1c1.5 0 2.6-1.2 2.6-2.6 0-1.5-1.2-2.6-2.6-2.6-1.5 0-2.6 1.2-2.6 2.6-.1 1.4 1.1 2.6 2.6 2.6zm13.4-.1c1.4 0 2.6-1.1 2.6-2.6 0-1.4-1.1-2.6-2.6-2.6-1.4 0-2.6 1.1-2.6 2.6s1.1 2.6 2.6 2.6zm13.4-.1c1.4 0 2.5-1.1 2.5-2.5s-1.1-2.5-2.5-2.5-2.5 1.1-2.5 2.5 1.1 2.5 2.5 2.5zm13.4-.1c1.3 0 2.4-1.1 2.4-2.4s-1.1-2.4-2.4-2.4-2.4 1.1-2.4 2.4c0 1.4 1.1 2.4 2.4 2.4zm13.4 0a2.3 2.3 0 1 0 0-4.6 2.26 2.26 0 0 0-2.3 2.3c-.1 1.2 1 2.3 2.3 2.3zm13.4-.1a2.3 2.3 0 1 0 0-4.6 2.3 2.3 0 1 0 0 4.6zm13.4-.1a2.22 2.22 0 0 0 2.2-2.2 2.22 2.22 0 0 0-2.2-2.2 2.22 2.22 0 0 0-2.2 2.2 2.22 2.22 0 0 0 2.2 2.2zm13.4 0c1.2 0 2.1-.9 2.1-2.1s-.9-2.1-2.1-2.1-2.1.9-2.1 2.1c0 1.1.9 2.1 2.1 2.1zm13.4-.1c1.1 0 2-.9 2-2s-.9-2-2-2-2 .9-2 2 .9 2 2 2zm13.4-.1c1.1 0 2-.9 2-2s-.9-2-2-2-2 .9-2 2 .9 2 2 2zm13.4-.1c1 0 1.9-.8 1.9-1.9 0-1-.8-1.9-1.9-1.9-1 0-1.9.8-1.9 1.9.1 1.1.9 1.9 1.9 1.9zm13.4 0a1.8 1.8 0 1 0 0-3.6 1.8 1.8 0 1 0 0 3.6zm13.4-.1c.9 0 1.7-.8 1.7-1.7s-.8-1.7-1.7-1.7-1.7.8-1.7 1.7.8 1.7 1.7 1.7zm13.4-.1c.9 0 1.7-.7 1.7-1.7 0-.9-.7-1.7-1.7-1.7-.9 0-1.7.7-1.7 1.7.1 1 .8 1.7 1.7 1.7zm13.4-.1a1.6 1.6 0 1 0 0-3.2 1.58 1.58 0 0 0-1.6 1.6c0 .9.8 1.6 1.6 1.6zm13.4 0a1.54 1.54 0 0 0 1.5-1.5 1.54 1.54 0 0 0-1.5-1.5 1.54 1.54 0 0 0-1.5 1.5 1.54 1.54 0 0 0 1.5 1.5zm13.4-.1a1.54 1.54 0 0 0 1.5-1.5 1.54 1.54 0 0 0-1.5-1.5 1.54 1.54 0 0 0-1.5 1.5c.1.9.7 1.5 1.5 1.5zm13.5 0c.8 0 1.4-.6 1.4-1.4s-.6-1.4-1.4-1.4-1.4.6-1.4 1.4c-.1.7.6 1.4 1.4 1.4zm13.4-.1c.7 0 1.3-.6 1.3-1.3s-.6-1.3-1.3-1.3-1.3.6-1.3 1.3c-.1.7.5 1.3 1.3 1.3zm13.4-.1c.7 0 1.3-.6 1.3-1.3s-.6-1.3-1.3-1.3-1.3.6-1.3 1.3.6 1.3 1.3 1.3zm13.4 0c.7 0 1.2-.5 1.2-1.2s-.5-1.2-1.2-1.2-1.2.5-1.2 1.2c-.1.6.5 1.2 1.2 1.2zm13.4-.1c.6 0 1.2-.5 1.2-1.2 0-.6-.5-1.2-1.2-1.2-.6 0-1.2.5-1.2 1.2s.5 1.2 1.2 1.2zm13.4 0a1.11 1.11 0 0 0 1.1-1.1 1.11 1.11 0 0 0-1.1-1.1 1.11 1.11 0 0 0-1.1 1.1 1.11 1.11 0 0 0 1.1 1.1zm13.4-.1c.6 0 1-.5 1-1 0-.6-.5-1-1-1-.6 0-1 .5-1 1-.1.5.4 1 1 1zm13.4-.1c.5 0 1-.4 1-1 0-.5-.4-1-1-1-.5 0-1 .4-1 1s.5 1 1 1zm13.4 0c.5 0 .9-.4.9-.9s-.4-.9-.9-.9-.9.4-.9.9.4.9.9.9zm13.4-.1c.5 0 .9-.4.9-.9s-.4-.9-.9-.9-.9.4-.9.9.4.9.9.9zm13.4 0c.5 0 .8-.4.8-.8 0-.5-.4-.8-.8-.8-.5 0-.8.4-.8.8s.4.8.8.8zM53 256.5a3.33 3.33 0 0 0 3.3-3.3 3.33 3.33 0 0 0-3.3-3.3 3.33 3.33 0 0 0-3.3 3.3c.1 1.9 1.5 3.3 3.3 3.3zm13.4-.1c1.7 0 3.2-1.4 3.2-3.2 0-1.7-1.4-3.2-3.2-3.2-1.7 0-3.2 1.4-3.2 3.2.1 1.8 1.5 3.2 3.2 3.2zm13.5-.1a3.12 3.12 0 0 0 3.1-3.1 3.12 3.12 0 0 0-3.1-3.1 3.12 3.12 0 0 0-3.1 3.1c0 1.8 1.3 3.1 3.1 3.1zm13.4 0c1.7 0 3-1.3 3-3s-1.3-3-3-3-3 1.3-3 3c-.1 1.6 1.3 3 3 3zm13.4-.1c1.6 0 2.9-1.3 2.9-2.9s-1.3-2.9-2.9-2.9-2.9 1.3-2.9 2.9c-.1 1.6 1.2 2.9 2.9 2.9zm13.4-.1c1.6 0 2.9-1.3 2.9-2.9s-1.3-2.9-2.9-2.9-2.9 1.3-2.9 2.9 1.3 2.9 2.9 2.9zm13.4-.1c1.5 0 2.7-1.2 2.7-2.8 0-1.5-1.2-2.8-2.7-2.8s-2.8 1.2-2.8 2.8 1.3 2.8 2.8 2.8zm13.4-.1a2.7 2.7 0 1 0 0-5.4 2.7 2.7 0 1 0 0 5.4z"/><use xlink:href="#o"/><path d="M173.7 255.8c1.4 0 2.5-1.1 2.5-2.5s-1.1-2.5-2.5-2.5-2.5 1.1-2.5 2.5c0 1.3 1.1 2.5 2.5 2.5z"/><use xlink:href="#p"/><path d="M200.5 255.6a2.3 2.3 0 1 0 0-4.6 2.26 2.26 0 0 0-2.3 2.3c0 1.2 1 2.3 2.3 2.3zm13.4 0a2.3 2.3 0 1 0 0-4.6 2.26 2.26 0 0 0-2.3 2.3c0 1.2 1 2.3 2.3 2.3z"/><use xlink:href="#q"/><path d="M240.7 255.4c1.2 0 2.1-.9 2.1-2.1s-.9-2.1-2.1-2.1-2.1.9-2.1 2.1c0 1.1.9 2.1 2.1 2.1zm13.4-.1c1.1 0 2-.9 2-2s-.9-2-2-2-2 .9-2 2 .9 2 2 2zm13.4-.1c1.1 0 2-.9 2-2s-.9-2-2-2-2 .9-2 2c.1 1.1.9 2 2 2zm13.4-.1c1 0 1.9-.8 1.9-1.9 0-1-.8-1.9-1.9-1.9-1 0-1.9.8-1.9 1.9s.9 1.9 1.9 1.9zm13.4 0a1.8 1.8 0 1 0 0-3.6 1.8 1.8 0 1 0 0 3.6zm13.4-.1c1 0 1.7-.8 1.7-1.7 0-1-.8-1.7-1.7-1.7-1 0-1.7.8-1.7 1.7s.8 1.7 1.7 1.7zm13.4 0c.9 0 1.7-.8 1.7-1.7s-.8-1.7-1.7-1.7-1.7.8-1.7 1.7.8 1.7 1.7 1.7zm13.5-.1a1.6 1.6 0 1 0 0-3.2 1.58 1.58 0 0 0-1.6 1.6c-.1.9.6 1.6 1.6 1.6zm13.4-.1a1.6 1.6 0 1 0 0-3.2 1.6 1.6 0 1 0 0 3.2zm13.4-.1a1.54 1.54 0 0 0 1.5-1.5 1.54 1.54 0 0 0-1.5-1.5 1.54 1.54 0 0 0-1.5 1.5c0 .9.6 1.5 1.5 1.5z"/><use xlink:href="#r"/><path d="M388.2 254.6c.8 0 1.4-.6 1.4-1.4s-.6-1.4-1.4-1.4-1.4.6-1.4 1.4.6 1.4 1.4 1.4zm13.4 0c.7 0 1.3-.6 1.3-1.3s-.6-1.3-1.3-1.3-1.3.6-1.3 1.3.6 1.3 1.3 1.3zm13.4-.1c.7 0 1.2-.5 1.2-1.2s-.5-1.2-1.2-1.2-1.2.5-1.2 1.2c0 .6.5 1.2 1.2 1.2zm13.4-.1c.6 0 1.2-.5 1.2-1.2 0-.6-.5-1.2-1.2-1.2-.6 0-1.2.5-1.2 1.2s.6 1.2 1.2 1.2zm13.4 0a1.11 1.11 0 0 0 1.1-1.1 1.11 1.11 0 0 0-1.1-1.1 1.11 1.11 0 0 0-1.1 1.1 1.11 1.11 0 0 0 1.1 1.1zm13.4-.1a1.11 1.11 0 0 0 1.1-1.1 1.11 1.11 0 0 0-1.1-1.1 1.11 1.11 0 0 0-1.1 1.1 1.11 1.11 0 0 0 1.1 1.1zm13.4 0a1 1 0 1 0 0-2 .94.94 0 0 0-1 1 1.08 1.08 0 0 0 1 1zM59.7 270a3.4 3.4 0 1 0 0-6.8 3.37 3.37 0 0 0-3.4 3.4c.1 1.9 1.6 3.4 3.4 3.4z"/><use xlink:href="#s"/><path d="M86.6 269.9c1.8 0 3.2-1.4 3.2-3.2s-1.4-3.2-3.2-3.2-3.2 1.4-3.2 3.2c0 1.7 1.4 3.2 3.2 3.2z"/><use xlink:href="#t"/><path d="M113.4 269.7a3.01 3.01 0 0 0 3-3 3.01 3.01 0 0 0-3-3 3.01 3.01 0 0 0-3 3c-.1 1.6 1.3 3 3 3zm13.4-.1a3.01 3.01 0 0 0 3-3 3.01 3.01 0 0 0-3-3 3.01 3.01 0 0 0-3 3c0 1.7 1.3 3 3 3zm13.4 0c1.6 0 2.9-1.3 2.9-2.9s-1.3-2.9-2.9-2.9-2.9 1.3-2.9 2.9 1.3 2.9 2.9 2.9zm13.4-.2c1.5 0 2.8-1.2 2.8-2.8 0-1.5-1.2-2.8-2.8-2.8-1.5 0-2.8 1.2-2.8 2.8a2.73 2.73 0 0 0 2.8 2.8zm13.4 0a2.7 2.7 0 1 0 0-5.4 2.7 2.7 0 1 0 0 5.4z"/><use xlink:href="#u"/><path d="M193.8 269.2c1.4 0 2.6-1.1 2.6-2.6 0-1.4-1.1-2.6-2.6-2.6-1.4 0-2.6 1.1-2.6 2.6s1.2 2.6 2.6 2.6zm13.4-.1c1.4 0 2.5-1.1 2.5-2.5s-1.1-2.5-2.5-2.5-2.5 1.1-2.5 2.5 1.1 2.5 2.5 2.5zm13.4-.1c1.3 0 2.4-1.1 2.4-2.4s-1.1-2.4-2.4-2.4-2.4 1.1-2.4 2.4c0 1.4 1.1 2.4 2.4 2.4zm13.4 0a2.3 2.3 0 1 0 0-4.6 2.26 2.26 0 0 0-2.3 2.3c0 1.2 1 2.3 2.3 2.3zm13.4-.1a2.22 2.22 0 0 0 2.2-2.2 2.22 2.22 0 0 0-2.2-2.2 2.22 2.22 0 0 0-2.2 2.2 2.22 2.22 0 0 0 2.2 2.2zm13.4-.1a2.22 2.22 0 0 0 2.2-2.2 2.22 2.22 0 0 0-2.2-2.2 2.22 2.22 0 0 0-2.2 2.2c.1 1.2 1 2.2 2.2 2.2zm13.4-.1c1.1 0 2.1-.9 2.1-2.1s-.9-2.1-2.1-2.1-2.1.9-2.1 2.1 1 2.1 2.1 2.1zm13.4 0c1.1 0 2-.9 2-2s-.9-2-2-2-2 .9-2 2 .9 2 2 2zm13.4-.1c1.1 0 1.9-.9 1.9-1.9 0-1.1-.9-1.9-1.9-1.9-1.1 0-1.9.9-1.9 1.9a1.97 1.97 0 0 0 1.9 1.9zm13.4-.1c1 0 1.9-.8 1.9-1.9 0-1-.8-1.9-1.9-1.9-1 0-1.9.8-1.9 1.9.1 1.1.9 1.9 1.9 1.9zm13.4-.1a1.8 1.8 0 1 0 0-3.6 1.79 1.79 0 0 0-1.8 1.8c.1 1 .9 1.8 1.8 1.8zm13.5 0c.9 0 1.7-.8 1.7-1.7s-.8-1.7-1.7-1.7-1.7.8-1.7 1.7c-.1.9.7 1.7 1.7 1.7zm13.4-.1c.9 0 1.7-.7 1.7-1.7 0-.9-.7-1.7-1.7-1.7-.9 0-1.7.7-1.7 1.7s.7 1.7 1.7 1.7zm13.4 0a1.6 1.6 0 1 0 0-3.2 1.58 1.58 0 0 0-1.6 1.6c0 .8.7 1.6 1.6 1.6zm13.4-.1a1.54 1.54 0 0 0 1.5-1.5 1.54 1.54 0 0 0-1.5-1.5 1.54 1.54 0 0 0-1.5 1.5c-.1.8.6 1.5 1.5 1.5zm13.4-.1c.8 0 1.4-.6 1.4-1.4s-.6-1.5-1.4-1.5a1.47 1.47 0 0 0-1.5 1.5c0 .8.7 1.4 1.5 1.4zm13.4 0c.8 0 1.4-.6 1.4-1.4s-.6-1.4-1.4-1.4-1.4.6-1.4 1.4c0 .7.6 1.4 1.4 1.4zm13.4-.1c.7 0 1.3-.6 1.3-1.3s-.6-1.3-1.3-1.3-1.3.6-1.3 1.3c-.1.7.5 1.3 1.3 1.3zm13.4-.1c.7 0 1.3-.6 1.3-1.3s-.6-1.3-1.3-1.3-1.3.6-1.3 1.3c0 .8.6 1.3 1.3 1.3zm13.4-.1c.7 0 1.2-.5 1.2-1.2s-.5-1.2-1.2-1.2-1.2.5-1.2 1.2.5 1.2 1.2 1.2zm13.4 0c.6 0 1.2-.5 1.2-1.2 0-.6-.5-1.2-1.2-1.2-.6 0-1.2.5-1.2 1.2s.6 1.2 1.2 1.2z"/><use xlink:href="#v"/><path d="M93.3 283.5c1.9 0 3.5-1.5 3.5-3.5 0-1.9-1.5-3.5-3.5-3.5-1.9 0-3.5 1.5-3.5 3.5s1.5 3.5 3.5 3.5zm13.4-.1a3.33 3.33 0 0 0 3.3-3.3 3.33 3.33 0 0 0-3.3-3.3c-1.9 0-3.3 1.5-3.3 3.3-.1 1.8 1.4 3.3 3.3 3.3zm13.4-.1c1.8 0 3.2-1.4 3.2-3.2s-1.4-3.2-3.2-3.2-3.2 1.4-3.2 3.2c-.1 1.7 1.4 3.2 3.2 3.2zm13.4-.1c1.7 0 3.2-1.4 3.2-3.2 0-1.7-1.4-3.2-3.2-3.2-1.7 0-3.2 1.4-3.2 3.2s1.4 3.2 3.2 3.2zm13.4-.1a3.12 3.12 0 0 0 3.1-3.1 3.12 3.12 0 0 0-3.1-3.1 3.12 3.12 0 0 0-3.1 3.1 3.05 3.05 0 0 0 3.1 3.1z"/><use xlink:href="#w"/><path d="M173.7 283c1.6 0 2.9-1.3 2.9-2.9s-1.3-2.9-2.9-2.9-2.9 1.3-2.9 2.9c-.1 1.6 1.3 2.9 2.9 2.9zm13.4-.1c1.6 0 2.8-1.3 2.8-2.8 0-1.6-1.3-2.8-2.8-2.8-1.6 0-2.8 1.3-2.8 2.8s1.2 2.8 2.8 2.8zm13.4-.1c1.5 0 2.7-1.2 2.7-2.8 0-1.5-1.2-2.8-2.7-2.8s-2.8 1.2-2.8 2.8 1.3 2.8 2.8 2.8zm13.4-.1c1.5 0 2.6-1.2 2.6-2.6 0-1.5-1.2-2.6-2.6-2.6-1.5 0-2.6 1.2-2.6 2.6s1.1 2.6 2.6 2.6zm13.4 0a2.65 2.65 0 0 0 2.6-2.6 2.65 2.65 0 0 0-2.6-2.6 2.65 2.65 0 0 0-2.6 2.6 2.65 2.65 0 0 0 2.6 2.6zm13.4-.1c1.4 0 2.5-1.1 2.5-2.5s-1.1-2.5-2.5-2.5-2.5 1.1-2.5 2.5c0 1.3 1.1 2.5 2.5 2.5zm13.4-.1c1.3 0 2.4-1.1 2.4-2.4s-1.1-2.4-2.4-2.4-2.4 1.1-2.4 2.4 1.1 2.4 2.4 2.4zm13.4-.1a2.3 2.3 0 1 0 0-4.6 2.3 2.3 0 1 0 0 4.6zm13.4-.1a2.3 2.3 0 1 0 0-4.6 2.26 2.26 0 0 0-2.3 2.3c.1 1.3 1.1 2.3 2.3 2.3zm13.4 0a2.22 2.22 0 0 0 2.2-2.2 2.22 2.22 0 0 0-2.2-2.2 2.22 2.22 0 0 0-2.2 2.2 2.22 2.22 0 0 0 2.2 2.2zm13.4-.1c1.2 0 2.1-.9 2.1-2.1s-.9-2.1-2.1-2.1-2.1.9-2.1 2.1c0 1.1 1 2.1 2.1 2.1zm13.4-.1c1.1 0 2-.9 2-2s-.9-2-2-2-2 .9-2 2 .9 2 2 2zm13.5-.1c1.1 0 2-.9 2-2s-.9-2-2-2-2 .9-2 2 .9 2 2 2zm13.4 0c1 0 1.9-.8 1.9-1.9 0-1-.8-1.9-1.9-1.9-1 0-1.9.8-1.9 1.9 0 1 .8 1.9 1.9 1.9zm13.4-.1a1.8 1.8 0 1 0 0-3.6 1.79 1.79 0 0 0-1.8 1.8c-.1 1 .8 1.8 1.8 1.8zm13.4-.1c1 0 1.7-.8 1.7-1.7 0-1-.8-1.7-1.7-1.7-1 0-1.7.8-1.7 1.7-.1.9.7 1.7 1.7 1.7z"/><use xlink:href="#x"/><path d="M401.6 281.7a1.6 1.6 0 1 0 0-3.2 1.58 1.58 0 0 0-1.6 1.6c0 .8.7 1.6 1.6 1.6zm13.4-.1a1.6 1.6 0 1 0 0-3.2 1.6 1.6 0 1 0 0 3.2zm13.4-.1a1.54 1.54 0 0 0 1.5-1.5 1.54 1.54 0 0 0-1.5-1.5 1.54 1.54 0 0 0-1.5 1.5 1.47 1.47 0 0 0 1.5 1.5zm13.4 0c.8 0 1.4-.6 1.4-1.4s-.6-1.4-1.4-1.4-1.4.6-1.4 1.4c0 .7.6 1.4 1.4 1.4zm13.4-.1c.7 0 1.3-.6 1.3-1.3s-.6-1.3-1.3-1.3-1.3.6-1.3 1.3.6 1.3 1.3 1.3zM100 297.1c2 0 3.6-1.6 3.6-3.6s-1.6-3.6-3.6-3.6-3.6 1.6-3.6 3.6 1.6 3.6 3.6 3.6zm13.4-.1c1.9 0 3.5-1.6 3.5-3.5s-1.6-3.5-3.5-3.5-3.5 1.6-3.5 3.5 1.5 3.5 3.5 3.5zm13.4-.2a3.4 3.4 0 1 0 0-6.8 3.4 3.4 0 1 0 0 6.8z"/><use xlink:href="#y"/><path d="M153.6 296.7c1.8 0 3.2-1.4 3.2-3.2s-1.4-3.2-3.2-3.2-3.2 1.4-3.2 3.2c0 1.7 1.4 3.2 3.2 3.2z"/><use xlink:href="#z"/><path d="M180.4 296.5a3.01 3.01 0 0 0 3-3 3.01 3.01 0 0 0-3-3 3.01 3.01 0 0 0-3 3c-.1 1.7 1.3 3 3 3zm13.4-.1a3.01 3.01 0 0 0 3-3 3.01 3.01 0 0 0-3-3 3.01 3.01 0 0 0-3 3 3.01 3.01 0 0 0 3 3zm13.4-.1c1.6 0 2.9-1.3 2.9-2.9s-1.3-2.9-2.9-2.9-2.9 1.3-2.9 2.9 1.3 2.9 2.9 2.9zm13.4 0c1.5 0 2.8-1.2 2.8-2.8 0-1.5-1.2-2.8-2.8-2.8-1.5 0-2.8 1.2-2.8 2.8 0 1.5 1.3 2.8 2.8 2.8zm13.4-.2a2.7 2.7 0 1 0 0-5.4 2.7 2.7 0 1 0 0 5.4zm13.4 0a2.65 2.65 0 0 0 2.6-2.6 2.65 2.65 0 0 0-2.6-2.6 2.65 2.65 0 0 0-2.6 2.6 2.65 2.65 0 0 0 2.6 2.6zm13.4-.1c1.4 0 2.5-1.1 2.5-2.5s-1.1-2.5-2.5-2.5-2.5 1.1-2.5 2.5 1.1 2.5 2.5 2.5zm13.4-.1c1.4 0 2.5-1.1 2.5-2.5s-1.1-2.5-2.5-2.5-2.5 1.1-2.5 2.5c.1 1.4 1.2 2.5 2.5 2.5zm13.4-.1a2.3 2.3 0 1 0 0-4.6 2.3 2.3 0 1 0 0 4.6zm13.4 0a2.3 2.3 0 1 0 0-4.6 2.26 2.26 0 0 0-2.3 2.3c0 1.2 1.1 2.3 2.3 2.3zm13.4-.1a2.22 2.22 0 0 0 2.2-2.2 2.22 2.22 0 0 0-2.2-2.2 2.22 2.22 0 0 0-2.2 2.2 2.22 2.22 0 0 0 2.2 2.2zm13.4-.1c1.2 0 2.1-.9 2.1-2.1s-.9-2.1-2.1-2.1-2.1.9-2.1 2.1c0 1.1 1 2.1 2.1 2.1zm13.5-.1c1.1 0 2.1-.9 2.1-2.1s-.9-2.1-2.1-2.1-2.1.9-2.1 2.1.9 2.1 2.1 2.1z"/><use xlink:href="#AA"/><path d="M368.1 295.4c1.1 0 1.9-.9 1.9-1.9 0-1.1-.9-1.9-1.9-1.9-1.1 0-1.9.9-1.9 1.9-.1 1 .8 1.9 1.9 1.9zm13.4-.1a1.8 1.8 0 1 0 0-3.6 1.79 1.79 0 0 0-1.8 1.8c-.1 1 .8 1.8 1.8 1.8zm13.4 0a1.8 1.8 0 1 0 0-3.6 1.8 1.8 0 1 0 0 3.6zm13.4-.1c.9 0 1.7-.8 1.7-1.7s-.8-1.7-1.7-1.7-1.7.8-1.7 1.7.7 1.7 1.7 1.7zm13.4-.1a1.6 1.6 0 1 0 0-3.2 1.58 1.58 0 0 0-1.6 1.6c-.1.9.7 1.6 1.6 1.6zm13.4 0a1.6 1.6 0 1 0 0-3.2 1.58 1.58 0 0 0-1.6 1.6c0 .8.7 1.6 1.6 1.6z"/><use xlink:href="#AB"/><path d="M106.7 310.7a3.8 3.8 0 1 0-3.8-3.8c-.1 2.1 1.6 3.8 3.8 3.8zm13.4-.1c2.1 0 3.7-1.7 3.7-3.7 0-2.1-1.7-3.7-3.7-3.7-2.1 0-3.7 1.7-3.7 3.7-.1 2 1.6 3.7 3.7 3.7zm13.4-.1c2 0 3.6-1.6 3.6-3.6s-1.6-3.6-3.6-3.6-3.6 1.6-3.6 3.6c-.1 2 1.6 3.6 3.6 3.6zm13.4-.1c1.9 0 3.5-1.6 3.5-3.5 0-2-1.6-3.5-3.5-3.5-2 0-3.5 1.6-3.5 3.5-.1 1.9 1.5 3.5 3.5 3.5zm13.4-.1c1.9 0 3.5-1.5 3.5-3.5 0-1.9-1.5-3.5-3.5-3.5-1.9 0-3.5 1.5-3.5 3.5s1.6 3.5 3.5 3.5zm13.4-.1a3.33 3.33 0 0 0 3.3-3.3 3.33 3.33 0 0 0-3.3-3.3 3.33 3.33 0 0 0-3.3 3.3 3.33 3.33 0 0 0 3.3 3.3zm13.4-.1c1.8 0 3.2-1.4 3.2-3.2s-1.4-3.2-3.2-3.2-3.2 1.4-3.2 3.2 1.4 3.2 3.2 3.2zm13.4-.1a3.12 3.12 0 0 0 3.1-3.1 3.12 3.12 0 0 0-3.1-3.1 3.12 3.12 0 0 0-3.1 3.1 3.12 3.12 0 0 0 3.1 3.1zm13.4 0a3.12 3.12 0 0 0 3.1-3.1 3.12 3.12 0 0 0-3.1-3.1 3.12 3.12 0 0 0-3.1 3.1 3.12 3.12 0 0 0 3.1 3.1zm13.4-.1c1.7 0 3-1.3 3-3s-1.3-3-3-3-3 1.3-3 3a3.01 3.01 0 0 0 3 3zm13.4-.1c1.6 0 2.9-1.3 2.9-2.9s-1.3-2.9-2.9-2.9-2.9 1.3-2.9 2.9 1.3 2.9 2.9 2.9zm13.4-.1c1.6 0 2.8-1.3 2.8-2.8 0-1.6-1.3-2.8-2.8-2.8-1.6 0-2.8 1.3-2.8 2.8s1.3 2.8 2.8 2.8zm13.4-.1a2.7 2.7 0 1 0 0-5.4 2.7 2.7 0 1 0 0 5.4zm13.4-.1c1.5 0 2.6-1.2 2.6-2.6 0-1.5-1.2-2.6-2.6-2.6-1.5 0-2.6 1.2-2.6 2.6a2.65 2.65 0 0 0 2.6 2.6zm13.4-.1c1.4 0 2.6-1.1 2.6-2.6 0-1.4-1.1-2.6-2.6-2.6-1.4 0-2.6 1.1-2.6 2.6.1 1.5 1.2 2.6 2.6 2.6zm13.4 0c1.4 0 2.5-1.1 2.5-2.5s-1.1-2.5-2.5-2.5-2.5 1.1-2.5 2.5c0 1.3 1.2 2.5 2.5 2.5zm13.4-.1c1.3 0 2.4-1.1 2.4-2.4s-1.1-2.4-2.4-2.4-2.4 1.1-2.4 2.4c.1 1.3 1.1 2.4 2.4 2.4zm13.5-.1a2.3 2.3 0 1 0 0-4.6 2.26 2.26 0 0 0-2.3 2.3c-.1 1.3 1 2.3 2.3 2.3zm13.4-.1a2.3 2.3 0 1 0 0-4.6 2.3 2.3 0 1 0 0 4.6zm13.4-.1a2.22 2.22 0 0 0 2.2-2.2 2.22 2.22 0 0 0-2.2-2.2 2.22 2.22 0 0 0-2.2 2.2c0 1.3 1 2.2 2.2 2.2zm13.4 0c1.2 0 2.1-.9 2.1-2.1s-.9-2.1-2.1-2.1-2.1.9-2.1 2.1c-.1 1.1.9 2.1 2.1 2.1zm13.4-.1c1.1 0 2-.9 2-2s-.9-2-2-2-2 .9-2 2 .9 2 2 2zm13.4-.1c1.1 0 2-.9 2-2s-.9-2-2-2-2 .9-2 2a1.94 1.94 0 0 0 2 2zm13.4-.1c1 0 1.9-.8 1.9-1.9 0-1-.8-1.9-1.9-1.9-1 0-1.9.8-1.9 1.9s.9 1.9 1.9 1.9zm13.4 0a1.8 1.8 0 1 0 0-3.6 1.8 1.8 0 1 0 0 3.6zm13.4-.1c.9 0 1.7-.8 1.7-1.7s-.8-1.7-1.7-1.7-1.7.8-1.7 1.7.7 1.7 1.7 1.7zm-328.4 15.6c2.2 0 3.9-1.8 3.9-3.9 0-2.2-1.8-3.9-3.9-3.9-2.2 0-3.9 1.8-3.9 3.9-.1 2.2 1.7 3.9 3.9 3.9zm13.4-.1c2.1 0 3.9-1.7 3.9-3.9 0-2.1-1.7-3.9-3.9-3.9-2.1 0-3.9 1.7-3.9 3.9a3.84 3.84 0 0 0 3.9 3.9zm13.4-.1a3.8 3.8 0 1 0-3.8-3.8c0 2.2 1.7 3.8 3.8 3.8zm13.4 0c2 0 3.7-1.6 3.7-3.7 0-2-1.6-3.7-3.7-3.7-2 0-3.7 1.6-3.7 3.7 0 2 1.6 3.7 3.7 3.7zm13.4-.2c2 0 3.6-1.6 3.6-3.6s-1.6-3.6-3.6-3.6-3.6 1.6-3.6 3.6 1.6 3.6 3.6 3.6zm13.4 0c1.9 0 3.5-1.6 3.5-3.5s-1.6-3.5-3.5-3.5-3.5 1.6-3.5 3.5 1.6 3.5 3.5 3.5zm13.4-.2a3.33 3.33 0 0 0 3.3-3.3 3.33 3.33 0 0 0-3.3-3.3c-1.9 0-3.3 1.5-3.3 3.3s1.4 3.3 3.3 3.3zm13.4-.1a3.33 3.33 0 0 0 3.3-3.3 3.33 3.33 0 0 0-3.3-3.3 3.33 3.33 0 0 0-3.3 3.3c0 1.9 1.5 3.3 3.3 3.3zm13.4-.1c1.7 0 3.2-1.4 3.2-3.2 0-1.7-1.4-3.2-3.2-3.2s-3.2 1.4-3.2 3.2 1.5 3.2 3.2 3.2zm13.4 0a3.12 3.12 0 0 0 3.1-3.1 3.12 3.12 0 0 0-3.1-3.1 3.12 3.12 0 0 0-3.1 3.1 3.12 3.12 0 0 0 3.1 3.1zm13.4-.1a3.01 3.01 0 0 0 3-3 3.01 3.01 0 0 0-3-3 3.01 3.01 0 0 0-3 3c0 1.7 1.3 3 3 3zm13.4-.1c1.6 0 2.9-1.3 2.9-2.9s-1.3-2.9-2.9-2.9-2.9 1.3-2.9 2.9 1.3 2.9 2.9 2.9zm13.4-.1c1.6 0 2.9-1.3 2.9-2.9s-1.3-2.9-2.9-2.9-2.9 1.3-2.9 2.9c.1 1.7 1.3 2.9 2.9 2.9zm13.4-.1c1.5 0 2.7-1.2 2.7-2.8 0-1.5-1.2-2.8-2.7-2.8s-2.8 1.2-2.8 2.8c.1 1.6 1.3 2.8 2.8 2.8zm13.4 0a2.7 2.7 0 1 0 0-5.4 2.69 2.69 0 0 0-2.7 2.7c.1 1.5 1.3 2.7 2.7 2.7zm13.4-.1a2.65 2.65 0 0 0 2.6-2.6 2.65 2.65 0 0 0-2.6-2.6 2.65 2.65 0 0 0-2.6 2.6 2.65 2.65 0 0 0 2.6 2.6zm13.4-.1c1.4 0 2.5-1.1 2.5-2.5s-1.1-2.5-2.5-2.5-2.5 1.1-2.5 2.5 1.2 2.5 2.5 2.5zm13.5-.1c1.3 0 2.4-1.1 2.4-2.4s-1.1-2.4-2.4-2.4-2.4 1.1-2.4 2.4c-.1 1.3 1 2.4 2.4 2.4zm13.4-.1a2.3 2.3 0 1 0 0-4.6 2.26 2.26 0 0 0-2.3 2.3c-.1 1.3 1 2.3 2.3 2.3zm13.4 0a2.3 2.3 0 1 0 0-4.6 2.3 2.3 0 1 0 0 4.6zm13.4-.1a2.22 2.22 0 0 0 2.2-2.2 2.22 2.22 0 0 0-2.2-2.2 2.22 2.22 0 0 0-2.2 2.2 2.22 2.22 0 0 0 2.2 2.2zm13.4-.1c1.2 0 2.1-.9 2.1-2.1s-.9-2.1-2.1-2.1-2.1.9-2.1 2.1c0 1.1.9 2.1 2.1 2.1zm13.4-.1c1.1 0 2-.9 2-2s-.9-2-2-2-2 .9-2 2c-.1 1.1.9 2 2 2zm13.4-.1c1.1 0 2-.9 2-2s-.9-2-2-2-2 .9-2 2a1.94 1.94 0 0 0 2 2zm13.4 0c1 0 1.9-.8 1.9-1.9 0-1-.8-1.9-1.9-1.9-1 0-1.9.8-1.9 1.9 0 1 .8 1.9 1.9 1.9zm-301.6 15.6c2.3 0 4.1-1.8 4.1-4.1s-1.8-4.1-4.1-4.1-4.1 1.8-4.1 4.1c0 2.2 1.8 4.1 4.1 4.1zm13.4-.1c2.2 0 4-1.8 4-4s-1.8-4-4-4-4 1.8-4 4 1.8 4 4 4zm13.4-.1a3.9 3.9 0 1 0 0-7.8 3.84 3.84 0 0 0-3.9 3.9c0 2.1 1.7 3.9 3.9 3.9zm13.4-.1a3.8 3.8 0 1 0 0-7.6 3.8 3.8 0 1 0 0 7.6zm13.4-.1c2.1 0 3.7-1.7 3.7-3.7 0-2.1-1.7-3.7-3.7-3.7-2.1 0-3.7 1.7-3.7 3.7s1.6 3.7 3.7 3.7zm13.4-.1c2 0 3.6-1.6 3.6-3.6s-1.6-3.6-3.6-3.6-3.6 1.6-3.6 3.6 1.6 3.6 3.6 3.6zm13.4-.1c1.9 0 3.5-1.6 3.5-3.5 0-2-1.6-3.5-3.5-3.5-2 0-3.5 1.6-3.5 3.5s1.6 3.5 3.5 3.5zm13.4-.1a3.4 3.4 0 1 0 0-6.8 3.4 3.4 0 1 0 0 6.8zm13.4-.1a3.33 3.33 0 0 0 3.3-3.3 3.33 3.33 0 0 0-3.3-3.3 3.33 3.33 0 0 0-3.3 3.3 3.33 3.33 0 0 0 3.3 3.3zm13.4-.1c1.8 0 3.2-1.4 3.2-3.2s-1.4-3.2-3.2-3.2-3.2 1.4-3.2 3.2c0 1.7 1.5 3.2 3.2 3.2zm13.4-.1a3.12 3.12 0 0 0 3.1-3.1 3.12 3.12 0 0 0-3.1-3.1 3.12 3.12 0 0 0-3.1 3.1 3.12 3.12 0 0 0 3.1 3.1zm13.4 0a3.12 3.12 0 0 0 3.1-3.1 3.12 3.12 0 0 0-3.1-3.1 3.12 3.12 0 0 0-3.1 3.1 3.12 3.12 0 0 0 3.1 3.1zm13.4-.1a3.01 3.01 0 0 0 3-3 3.01 3.01 0 0 0-3-3 3.01 3.01 0 0 0-3 3c.1 1.6 1.4 3 3 3zm13.4-.1c1.6 0 2.9-1.3 2.9-2.9s-1.3-2.9-2.9-2.9-2.9 1.3-2.9 2.9 1.3 2.9 2.9 2.9zm13.4-.1c1.5 0 2.8-1.2 2.8-2.8 0-1.5-1.2-2.8-2.8-2.8-1.5 0-2.8 1.2-2.8 2.8.1 1.5 1.3 2.8 2.8 2.8zm13.5-.1a2.7 2.7 0 1 0 0-5.4 2.69 2.69 0 0 0-2.7 2.7c-.1 1.5 1.2 2.7 2.7 2.7zm13.4-.1a2.65 2.65 0 0 0 2.6-2.6 2.65 2.65 0 0 0-2.6-2.6 2.65 2.65 0 0 0-2.6 2.6c0 1.4 1.1 2.6 2.6 2.6zm13.4-.1c1.4 0 2.6-1.1 2.6-2.6 0-1.4-1.1-2.6-2.6-2.6-1.4 0-2.6 1.1-2.6 2.6s1.1 2.6 2.6 2.6zm13.4-.1c1.4 0 2.5-1.1 2.5-2.5s-1.1-2.5-2.5-2.5-2.5 1.1-2.5 2.5 1.1 2.5 2.5 2.5zm13.4 0c1.3 0 2.4-1.1 2.4-2.4s-1.1-2.4-2.4-2.4-2.4 1.1-2.4 2.4 1.1 2.4 2.4 2.4zm13.4-.1a2.3 2.3 0 1 0 0-4.6 2.26 2.26 0 0 0-2.3 2.3c-.1 1.3 1 2.3 2.3 2.3zm13.4-.1a2.22 2.22 0 0 0 2.2-2.2 2.22 2.22 0 0 0-2.2-2.2 2.22 2.22 0 0 0-2.2 2.2 2.22 2.22 0 0 0 2.2 2.2zm13.4-.1a2.22 2.22 0 0 0 2.2-2.2 2.22 2.22 0 0 0-2.2-2.2 2.22 2.22 0 0 0-2.2 2.2c0 1.3 1 2.2 2.2 2.2z"/><use xlink:href="#AC"/><path d="M167 351.1c2.2 0 4-1.8 4-4s-1.8-4-4-4-4 1.8-4 4 1.8 4 4 4zm13.4-.1a3.9 3.9 0 1 0 0-7.8 3.84 3.84 0 0 0-3.9 3.9c0 2.1 1.7 3.9 3.9 3.9zm13.4-.1a3.8 3.8 0 0 0 0-7.6 3.8 3.8 0 0 0 0 7.6zm13.4-.1a3.8 3.8 0 1 0-3.8-3.8c0 2.2 1.7 3.8 3.8 3.8zm13.4-.1c2 0 3.6-1.6 3.6-3.6s-1.6-3.6-3.6-3.6-3.6 1.6-3.6 3.6 1.6 3.6 3.6 3.6zm13.4 0c2 0 3.6-1.6 3.6-3.6s-1.6-3.6-3.6-3.6-3.6 1.6-3.6 3.6 1.6 3.6 3.6 3.6zm13.4-.2c1.9 0 3.5-1.5 3.5-3.5 0-1.9-1.5-3.5-3.5-3.5-1.9 0-3.5 1.5-3.5 3.5.1 2 1.6 3.5 3.5 3.5zm13.4-.1a3.33 3.33 0 0 0 3.3-3.3 3.33 3.33 0 0 0-3.3-3.3c-1.9 0-3.3 1.5-3.3 3.3a3.33 3.33 0 0 0 3.3 3.3zm13.4-.1c1.8 0 3.2-1.4 3.2-3.2s-1.4-3.2-3.2-3.2-3.2 1.4-3.2 3.2 1.4 3.2 3.2 3.2zm13.4-.1c1.7 0 3.2-1.4 3.2-3.2 0-1.7-1.4-3.2-3.2-3.2s-3.2 1.4-3.2 3.2c.1 1.8 1.5 3.2 3.2 3.2zm13.4 0a3.12 3.12 0 0 0 3.1-3.1 3.12 3.12 0 0 0-3.1-3.1 3.12 3.12 0 0 0-3.1 3.1c.1 1.7 1.4 3.1 3.1 3.1zm13.4-.1c1.7 0 3-1.3 3-3s-1.3-3-3-3-3 1.3-3 3a3.01 3.01 0 0 0 3 3zm13.4-.1c1.6 0 2.9-1.3 2.9-2.9s-1.3-2.9-2.9-2.9-2.9 1.3-2.9 2.9 1.3 2.9 2.9 2.9zm13.5-.1c1.6 0 2.8-1.3 2.8-2.8 0-1.6-1.3-2.8-2.8-2.8-1.6 0-2.8 1.3-2.8 2.8-.1 1.5 1.2 2.8 2.8 2.8zm13.4-.1c1.5 0 2.7-1.2 2.7-2.8 0-1.5-1.2-2.8-2.7-2.8s-2.8 1.2-2.8 2.8a2.73 2.73 0 0 0 2.8 2.8zm26.8-.1a2.65 2.65 0 0 0 2.6-2.6 2.65 2.65 0 0 0-2.6-2.6 2.65 2.65 0 0 0-2.6 2.6c0 1.4 1.1 2.6 2.6 2.6zm13.4-.1c1.4 0 2.5-1.1 2.5-2.5s-1.1-2.5-2.5-2.5-2.5 1.1-2.5 2.5 1.1 2.5 2.5 2.5zm13.4-.1c1.3 0 2.4-1.1 2.4-2.4s-1.1-2.4-2.4-2.4-2.4 1.1-2.4 2.4 1 2.4 2.4 2.4zm-248 15.3c2.4 0 4.3-1.9 4.3-4.3s-1.9-4.4-4.3-4.4-4.3 1.9-4.3 4.4c-.1 2.4 1.9 4.3 4.3 4.3zm13.4 0c2.4 0 4.3-1.9 4.3-4.3s-1.9-4.3-4.3-4.3-4.3 1.9-4.3 4.3 1.9 4.3 4.3 4.3z"/><use xlink:href="#AD"/><path d="M200.5 364.6c2.3 0 4.1-1.8 4.1-4.1s-1.8-4.1-4.1-4.1-4.1 1.8-4.1 4.1 1.8 4.1 4.1 4.1zm13.4-.2c2.2 0 3.9-1.8 3.9-3.9 0-2.2-1.8-3.9-3.9-3.9-2.2 0-3.9 1.8-3.9 3.9a3.84 3.84 0 0 0 3.9 3.9zm13.4 0c2.1 0 3.9-1.7 3.9-3.9 0-2.1-1.7-3.9-3.9-3.9-2.1 0-3.9 1.7-3.9 3.9 0 2.1 1.8 3.9 3.9 3.9zm13.4-.1a3.8 3.8 0 1 0 0-7.6 3.8 3.8 0 1 0 0 7.6zm13.4-.1c2 0 3.7-1.6 3.7-3.7 0-2-1.6-3.7-3.7-3.7-2 0-3.7 1.6-3.7 3.7a3.76 3.76 0 0 0 3.7 3.7zm13.4-.1c2 0 3.6-1.6 3.6-3.6s-1.6-3.6-3.6-3.6-3.6 1.6-3.6 3.6 1.6 3.6 3.6 3.6zm26.8-.2a3.4 3.4 0 1 0 0-6.8 3.37 3.37 0 0 0-3.4 3.4c.1 1.9 1.6 3.4 3.4 3.4zm13.4-.1a3.33 3.33 0 0 0 3.3-3.3 3.33 3.33 0 0 0-3.3-3.3 3.33 3.33 0 0 0-3.3 3.3c.1 1.8 1.5 3.3 3.3 3.3zm13.4-.1c1.8 0 3.2-1.4 3.2-3.2s-1.4-3.2-3.2-3.2-3.2 1.4-3.2 3.2 1.5 3.2 3.2 3.2zm13.5-.1a3.12 3.12 0 0 0 3.1-3.1 3.12 3.12 0 0 0-3.1-3.1 3.12 3.12 0 0 0-3.1 3.1c-.1 1.7 1.3 3.1 3.1 3.1zm-166.9 12.9a4.5 4.5 0 1 0 0-9 4.48 4.48 0 0 0-4.5 4.5 4.55 4.55 0 0 0 4.5 4.5zm12.7 1.8c2.4 0 4.4-2 4.4-4.4s-2-4.4-4.4-4.4-4.4 2-4.4 4.4 1.9 4.4 4.4 4.4zm13.4-.1c2.4 0 4.3-1.9 4.3-4.3s-1.9-4.3-4.3-4.3-4.3 1.9-4.3 4.3 1.9 4.3 4.3 4.3zm13.4-.1a4.23 4.23 0 0 0 4.2-4.2 4.23 4.23 0 0 0-4.2-4.2 4.23 4.23 0 0 0-4.2 4.2 4.23 4.23 0 0 0 4.2 4.2zm13.4-.1c2.3 0 4.1-1.8 4.1-4.1s-1.8-4.1-4.1-4.1-4.1 1.8-4.1 4.1 1.8 4.1 4.1 4.1zm13.4-.1c2.2 0 4-1.8 4-4s-1.8-4-4-4-4 1.8-4 4 1.8 4 4 4zm13.4-.1a3.9 3.9 0 1 0 0-7.8 3.84 3.84 0 0 0-3.9 3.9c0 2.2 1.8 3.9 3.9 3.9zm13.4-.1a3.8 3.8 0 1 0 0-7.6 3.8 3.8 0 0 0 0 7.6z"/></g><g fill="#e688a3"><path d="M150 34.1s-6.8 0-7 9.4.2 22.3 12.4 22.6 19-5.4 23.7-9.9 10.6-17.9 10.3-23.2-4.5-12.9-8.5-10.6S167.6 35 167.6 35l-5 13.6-8.6-11.9-4-2.6zm240.8 256.8s-13.6-5.2-11.5 5.2 4.5 19.8 4.5 19.8 11.5 8.4 20.2 2.4c8.7-5.9 18.5-21.6 18.8-23s2.1-14.6 1-15.7c-1-1-.3-4.9-4.2-3.5-3.8 1.4-7.3-.3-10.1 4.5-2.8 4.9-10.1 14.3-10.4 16.7s-.3 4.5-.3 4.5l-8-10.9zM76 120.6s-5.7-13.8-7.7-16.4c-1.9-2.6-1.2-5.9-6.4-6.3-5.2-.3-11 .3-13.4 1.6-2.4 1.2-5.2 3.1-6.4 4.5s-5.7 4.4-5.2 8c.5 3.7 7 26.1 6.3 27s7.8 28.2 9.4 32.4 1.4 6.3 7.5 7.8 13.8.3 16.2-1.2c2.4-1.6 4.9-2.6 6.4-5.7s3.7-8.2 3.3-12-3.1-4-2.1-6.1 8.7-4.2 8.7-4.2 2.8 6.6 3.8 9.9-.3 7.8 4.5 9.2 14.4.7 17.2-.2 7-1.4 9.2-4c2.3-2.6 3.3-7.7 2.6-10.4-.7-2.8 4.4 1.9 7.3 4.2 3 2.3 7.8 5.2 13.6 5.6s3.1 1.2 11.8-.2 15.1-2.8 18.6-5.6 5.4-4.9 8.4-9.4 5-8 6.4-10.1.9-6.4 2.1 0-.9 6.6 1.4 10.1 1.7 6.1 6.8 6.4c5 .3 5.9 1.6 10.6.3 4.7-1.2 4.9-.3 7.5-2.4s3.5-3.1 3.8-7.3 1.4-9.6 1.4-9.6 9.6 12.5 13.6 14.3 5.6 1.7 10.4 2.1c4.9.3 14.4-6.1 15.2-5.8s5.7 2.2 9.7 3.9 13.8 5.5 21.7 4.7 12.5 2.1 15.4-.3 5.2-1.8 6.8-4.7 3.4-8.6 2.1-9.9-.5-3.4-3.7-5c-3.1-1.6-12.3-5.7-17.2-6l-8.1-.5.8-2.9s6 .5 11.8 0c5.7-.5 9.9-.5 12-1.3s3.9-3.7 3.9-3.7.5-2.1 1.8 1.6 2.6 6 2.6 6 5 5.5 8.4 7.6 4.7.3 5.2 2.9-1.3 9.4-.8 12.3-2.6 3.4 2.1 7.1 1 6.8 9.7 7.3c8.6.5 15.1-8.1 15.1-8.1s17.8-27.9 20.6-31.1 10.7-23.8 10.7-23.8 3.9-3.7.5-7.1-9.1-11.5-12-10.7-6.8 1.3-8.9 5-12.5 19.1-14.9 23.2c-2.4 4.2-.5 7.6-3.9 4.2s-3.9-.8-4.4-5 2.1-27.7.5-29.5-4.2-3.1-11-3.4-12 0-12 0-1.8 12.3-2.4 13.8c-.5 1.6-3.1 13.8-4.2 14.4-1 .5-1.3 1.3-5.2-1-3.9-2.4-21.7-1.3-22.7-2.6s1-6 1-6 14.4-2.1 17-1.6 6 1.6 8.6 1c2.6-.5 7.6-5.7 7.6-5.7L330.9 78l-18-5.5c-.8 0-24.8-2.4-26.1-1.3-1.3 1-7.1 1.8-10.4 6.5-3.4 4.7-5.5 14.4-5.5 12s-3.7-13.8-3.7-13.8 5.7-2.9-3.7-3.4-14.6-2.9-16.7-.5-4.7 3.1-5.5 7.8l-3.7 21.2s-8.1-11.2-9.7-14.6-2.6-11.5-5.2-12.5-13.8-1.3-15.7.3-7.1 3.1-8.1 3.9-3.4 2.9-3.7 5.5.3 9.1-.5 11.8c-.8 2.6-.8 5.5-2.1 4.4-1.3-1-8.6-9.4-9.9-10.4s-5.2-8.9-8.1-9.1c-2.9-.3-22.5-4.2-29.8 0s-13.8 7.1-15.1 8.6-9.4 14.1-9.4 14.1-4.7-12.3-7.6-13.1-9.4-3.9-12.8-2.9-9.1 5.5-9.1 5.5-1.6 1.8-2.1 4.4-.5 18 0 19.1 0 6.3 0 6.3-7.6 1.6-8.4 2.1c-.6.3-4.3-3.8-4.3-3.8zm129.8 130.2c-.8-.8-14.6-5-16.7-4.7s-6.5-1.9-13.1-.5-12 3.9-15.1 6.5-5.5-1.6-6.8 4.4-2.1 25.6-1.6 26.9 3.7 34.5 7.1 42c3.4 7.6 5 10.7 9.7 12.5s26.1-.3 28.7-.5c2.6-.3 13.8-4.2 17.8-7.1 3.9-2.9 8.6-6.3 8.6-8.9s.8-9.4.8-9.4l-8.1-18.8-6-5.7s0-3.4 1-5 4.7-5.5 4.7-7.1-2.4-9.1-2.9-11.5 1.6-12 1.6-12l7.6-5.7s6-1.8 7.3-1.6c1.3.3 5.2 2.4 6 2.9s2.4 1.8 3.9 5.7c1.6 3.9 5 17 4.7 17.8s-1.6 3.1-2.4 12.8.8 13.3 1.6 15.7.5 5.5 3.9 6.8 2.9 5.7 7.6 2.4 5.5-3.9 7.1-6.3 1.8.8 1.8-5.2-.8-23.8-.8-23.8.8-14.1 1.6-17.5-.1-6.3 3.1-8.6-5.5-6 5-3.9c10.4 2.1 10.4 2.1 11.2 2.6s1.6 1.3 3.4 1.3 6.6-1 9.4-1.6 4.7-1.6 7.8-.5c3.1 1 3.1-.8 6.5 1.6s4.7.3 6.3 3.7 5 14.9 6.8 18 3.1 4.7 3.1 4.7.5-13.3 2.1-15.7 3.7-6.8 5.5-7.8 4.4-.5 9.7-1.3c5.2-.8 13.3.8 13.3.8s.5 5.5 1 7.6 0 37.3 0 37.3-.5 29.5-2.4 30c-1.8.5-5 4.4-10.4 4.4-5.5 0-12 1-14.4-.8s-8.6-7.3-9.9-9.7-4.7-5.7-4.7-5.7-1.8 8.6-3.1 9.7c-1.3 1-2.1 3.4-8.1 3.4s-15.4-.8-15.4-.8-2.9-.5-4.2-3.4-1-9.4-3.4-5 1.6 3.9-3.4 6.5-7.8 5.2-11.2 7.1c-3.4 1.8-.5 2.1-8.4 2.6-7.8.5-6 1.8-12.3.3-6.3-1.6-10.7-3.1-13.8-5-3.1-1.8-7.3-4.4-7.3-4.4l-4.2-23-13-13.1 4.8-10.4-2.6-17.4-6.4-8.6z"/><path d="M138.9 163.3l13.1 1.8 11.2 8.1 4.2 7.8s0-12.5.5-13.3 6-7.3 8.9-7.1c2.9.3 9.7 1.8 10.4 2.1.8.3 5.2 6.8 4.7 9.9s1 11 1.6 15.7c.5 4.7 1.6 12.3 1.6 12.3s-1.6 0 3.1-1 3.1-4.4 9.9-2.1c6.8 2.4 11.2 6.8 10.7 4.2s-3.7-21.2-2.1-25.9 1.3-9.1 3.1-12.5 3.9-6.8 7.1-6.3 8.1.8 9.9 2.4 3.7 6 3.7 6 .6-2.6 4.4-3.7c3.9-1 6.5-1.8 10.2-1s3.4-.3 6 1.3 2.6-.3 7.1 6.8 7.8 16.7 8.9 17.8c1 1 2.6 8.4 2.6 3.1 0-5.2-.8-13.3 0-15.7s-1-7.1 2.4-9.4-.3-6 7.6-5.7 9.4-.3 13.1 1.8 6.3 3.4 7.1 5-1.6-3.9.8-4.2 1.6-1.2 6.3-1.3c4.6-.1 6.8-1.3 10.4 0s11.5 7.1 12.2 9 2.4 9.4 5.2 15.3 1 16.5 3.3 8.5 3.7-17.9 6.1-21.9-2.1-5.6 5.7-6.3 12.5-.9 14.8.7 4.7.2 4.9 4.5c.2 4.4-.3 15.1-.2 15.7.2.5 1.7-14.6 3.3-15.1s4.4-2.8 8.9-.5 7.1 2.6 9.6 4.2c2.4 1.6 3 .5 3.1 5 .2 4.5-.7 14.8-.3 19l.5 8.4s2.4 4.9 3.1 4.8 2.4-.3 6-5.8 7.1-11.7 9.4-15c2.3-3.2 3.5-6.4 6-8 2.6-1.6 2.3-4.5 8.7-2.1s11.1 5.1 12.1 7.8c.9 2.7 1.4.3-1.5 8.8s-7.9 15.2-10.1 20.2-12.8 23-17.9 29-11.6 10.2-14.2 11.1-3.4 3.4-8.8 0-9.5-3.4-8.1-9.6c1.4-6.3 2.7-15 2.1-15.9s-1.6-1-5.7-3.1-7.4-10.3-9.7-4.2c-2.3 6.2-.3 12.6-3.5 16.9-3.1 4.3-.2 5.5-6.3 5.3-6-.1-12.3 2-16.2-1.4s-6-5.1-8.1-7.9-4.1-13-5.8-8.8-2.2 8-4.9 10.4-8.2 3.6-11.7 3.5-10.9-4.2-13.5-4.1c-2.6.2-3.1 1.2-11 1.4-7.8.2-11.3 0-14.1-2.3s-10.1-8.4-10.4-9.4-.9 11.7-3 12.5c-2.1.9-1.4.9-9.2 1.4s-9.7 1.9-13.6-1c-3.8-3-4.4-13.2-7-9.7s-2.6 6.3-8.2 9.6-7.8 4.5-12 5.6c-4.2 1-24.2-.4-27-1s.3-2.8-8-.9-9.1-.9-14.1 2.6-9.7 4.5-12.4 5.4-5.2 1.7-15.1 2.6-11.7 3.3-18.3 0-13.6-18.3-13.4-20-.5-30.3-1.7-35-4.2-12.4-3.8-17.1c.3-4.7 1.6-11.4 3.8-12.5s13.1-4 16.5-4.9c3.5-.9 15-2.6 15-2.6z"/></g><g class="C D E F"><use xlink:href="#B"/><g class="B"><use xlink:href="#AE"/><path d="M244.5 119.2c.6.3-8.9-20.4-15-32-4.6-8.8-4.9-16-22.1-13.9S194 92.4 194 92.4s4.2 51.3 6.5 57.2c2.3 6 12.7 5.3 15.5 5 3.6-.3 8.1 0 11.5-4.1s2.4-14.6 2.4-14.6m-158.1-8.8s15.8-5.7 25.6-5.9m-19.8 32.3s17.1-2.6 23.3-5.2m8.7 21.3c-3 .2-5.7-.3-7.4-1.6-4.9-3.8-7.3-16.6-7.3-16.6"/><use xlink:href="#AF"/><path d="M120.4 103s7.7-21.8 31.2-25.1c25-3.5 43.2 17.4 44.9 46.8s-21.7 37.4-34 38.6c-11.3 1.1-27.3-3.9-32.6-12.4m108.7-46.3s1-20.9 2.1-24.4 2.2-6.9 8.5-8c7.2-1.2 15.2.9 15.2.9s3.1.5 4.7 4.6c1.6 4.2 2.8 59.4.9 67.4s-15.1 8-19.7 7.8c-.4 0-.8 0-1.2-.1-5.4-.7-10.2-3.8-13.1-8.5l-10.1-16.5"/><use xlink:href="#AG"/><path d="M285.3 207.1c.6.3-8.7-20.6-14.6-32.2-4.5-8.9-4.7-16.1-21.9-14.2-3.4.4-6 1.3-8 2.6m38.8 29.2s1.3-20.9 2.4-24.3c1.1-3.5 2.3-6.9 8.6-7.9 7.2-1.1 15.2 1.1 15.2 1.1s3.1.5 4.6 4.7 2.1 59.4 0 67.4-15.2 7.8-19.8 7.6c-.4 0-.8-.1-1.2-.1-5.4-.7-10.2-4-13-8.6l-9.9-16.6M187.6 245a24.38 24.38 0 0 1-9.8-11.7m-10.9-52.2c-1-6.9-1.4-19 11.1-20.2 21.9-2.1 11.6 26.2 17.2 45 0 0 3.2-6.6 11.6-7.2S218 204 218 204s-4.8-39.8 5.7-45.1c9-4.5 16 2.4 17.5 6.6 2.7 7.5-1.3 58.5-4.2 66.2-2.3 6.3-11.8 15.6-27.8 17.2-1.2.1-2.4.2-3.5.2m101.5-9.8c3.7 2 8.7 2.4 10.5 2.5 3.6.2 8 1.2 12-2.4 4-3.5 4.6-14.1 4.6-14.1m16.9-14.3c.6.4-5.8-21.5-10-33.9-3.3-9.4-2.5-16.6-19.8-17.1-5-.1-8.5 1.2-10.9 3.2m37.1 32.5s4.1-20.5 5.7-23.8 3.2-6.5 9.6-6.7c7.3-.1 14.9 3.2 14.9 3.2s3 .9 4 5.3c.9 4.4-6.1 59.1-9.1 66.8s-16.2 5.7-20.6 4.8c-.4-.1-.8-.2-1.1-.3-5.3-1.5-9.5-5.3-11.7-10.3l-7.6-17.8"/></g><use xlink:href="#AH"/><path d="M142.7 40.5s-2.4 29.6 20.9 25.1 31.5-46.7 17.9-43.5-18.8 27.5-18.8 27.5-13.2-28.6-20-9.1z"/><g class="B"><path d="M270.5 143.4c1.1 5.9 6.7 8.2 12.2 9.3 2.7.6 19.4 3.2 31.1 2.9 5.1-.1 9.8-3.4 10.9-8.3 1.2-5.5-.7-10.2-4.4-12.7-4.3-2.9-25.7-3.8-25.7-3.8l.7-6.1s18 2.2 25.1.5c5.4-1.3 6-10.1 4.9-13-1.6-4.2-6.1-5.4-9.4-5.8s-17.1-2.6-17.1-2.6l1.6-6.8s20.5 2.1 24.4 1.9c8.7-.3 9.3-6.4 9.6-11.7.3-5.2-2.3-8.7-7-10.6-2-.8-10-2.6-19.1-3.5s-18.3-.7-18.3-.7c-14.1.7-15.4 13.7-15.4 13.7l-3.7 19.5"/><use xlink:href="#AI"/><path d="M382 172s-.4-.4 3.3-1.2 15.7.5 18.2 5.4c2.5 5-.3 26.6-.1 30s3.8 5.8 6.2 4.5 12.6-25.7 18.9-29c6.6-3.4 18.1 2.4 20.3 10 2.3 7.6-30.8 61.9-38.5 65.2-5.5 2.4-13 2.5-18.4-3-5.4-5.6-.4-23-.4-23s-11-.7-14.4-9.4l-.5-1.2M146 111.4l23.5 14.1"/><path d="M149.7 131.2l14.1-26.1m-38.2 75.2l16 12.8"/><path d="M126.3 195.4l13-18m-8.1 46l23.6 14"/><path d="M135 243.2l13.9-26.2m40.2 3.4l9.6 5.7"/><path d="M190.6 228.5l5.7-10.7m29 .3l-9.6 5.8"/><path d="M223.8 226.2L218 215.6"/></g><path d="M160.2 203.6s14.6 3.1 16.8 18.9c2 14.3-2.1 21.2-10.9 27-8.2 5.3-24.3 6-36.3 6.5-12 .6-15.2-6.4-17-12.8-.8-2.9-7.9-50.1-7.9-50.1s-3.3-14 3.4-21.6c5.9-6.6 30.8-9.8 41.4-8.6 11.6 1.3 27.7 26 10.5 40.7z"/></g><path d="M204 230.5l8.1-.5-3.5 7.8-4.6-7.3z" class="G"/><g class="B C D E F"><path d="M285.8 311.9c-.1 3.1.5 4.6 2 9.1 2 6.1 12.2 6.2 15 6.2 3.6 0 8.1.6 11.8-3.3s3.5-14.4 3.5-14.4m15.8-15.6c.6.4-7.4-21-12.6-33-4-9.2-3.7-16.3-21-15.5-3.4.2-6.1 1-8.1 2.2"/><use xlink:href="#AJ"/><path d="M215.1 265.7c-.9-6.8-1.4-20 11.4-20.9 21.9-1.6 14.3 25.9 15.6 46.8 0 0-1 14.4 8.4 16.7 8.7 2.2 13.8-4.4 14.2-11.3.1-1.1-.1-7.1.1-8.2 1.1-7.1-2.7-39.2 7-43.7 9.1-4.3 16.6 1.6 17.9 5.8 1.3 4.3-2.6 58.4-5.7 66.1-2.5 6.3-12.1 15.3-28.1 16.6-20.2 1.6-28.3-9-31.1-16.3M172.9 265l19.2 13.7"/><path d="M174.7 282.2l13.9-21.4m-9.5 44.4l21.8 16.6"/><path d="M180.5 325.4l16.9-24.5"/><use xlink:href="#AK"/><path d="M215.5 274.1s.1 12.4 2.6 18.5m-50.3-102.8s.9 14.1 3.9 20"/></g><g fill="#e688a3"><path d="M150.6 34.1s-6.8 0-7 9.4.2 22.3 12.4 22.6 19-5.4 23.7-9.9S190.3 38.3 190 33s-4.5-12.9-8.5-10.6S168.2 35 168.2 35l-5 13.6-8.5-11.8-4.1-2.7zm240.8 256.8s-13.6-5.2-11.5 5.2 4.5 19.8 4.5 19.8 11.5 8.4 20.2 2.4c8.7-5.9 18.5-21.6 18.8-23s2.1-14.6 1-15.7-.3-4.9-4.2-3.5c-3.8 1.4-7.3-.3-10.1 4.5-2.8 4.9-10.1 14.3-10.4 16.7s-.3 4.5-.3 4.5l-8-10.9zM76.6 120.6s-5.7-13.8-7.7-16.4c-1.9-2.6-1.2-5.9-6.4-6.3-5.2-.3-11 .3-13.4 1.6-2.4 1.2-5.2 3.1-6.4 4.5s-5.7 4.4-5.2 8c.5 3.7 7 26.1 6.3 27s7.8 28.2 9.4 32.4 1.4 6.3 7.5 7.8c6.1 1.6 13.8.3 16.2-1.2 2.4-1.6 4.9-2.6 6.4-5.7 1.6-3.1 3.7-8.2 3.3-12-.3-3.8-3.1-4-2.1-6.1s8.7-4.2 8.7-4.2 2.8 6.6 3.8 9.9-.3 7.8 4.5 9.2c4.9 1.4 14.4.7 17.2-.2s7-1.4 9.2-4 3.3-7.7 2.6-10.4c-.7-2.8 4.4 1.9 7.3 4.2 3 2.3 7.8 5.2 13.6 5.6 5.7.3 3.1 1.2 11.8-.2s15.1-2.8 18.6-5.6 5.4-4.9 8.4-9.4 5-8 6.4-10.1.9-6.4 2.1 0-.9 6.6 1.4 10.1 1.7 6.1 6.8 6.4c5 .3 5.9 1.6 10.6.3 4.7-1.2 4.9-.3 7.5-2.4s3.5-3.1 3.8-7.3 1.4-9.6 1.4-9.6 9.6 12.5 13.6 14.3 5.6 1.7 10.4 2.1 14.4-6.1 15.2-5.8 5.7 2.2 9.7 3.9 13.8 5.5 21.7 4.7 12.5 2.1 15.4-.3 5.2-1.8 6.8-4.7 3.4-8.6 2.1-9.9-.5-3.4-3.7-5c-3.1-1.6-12.3-5.7-17.2-6l-8.1-.5.8-2.9s6 .5 11.8 0c5.7-.5 9.9-.5 12-1.3s3.9-3.7 3.9-3.7.5-2.1 1.8 1.6 2.6 6 2.6 6 5 5.5 8.4 7.6 4.7.3 5.2 2.9-1.3 9.4-.8 12.3-2.6 3.4 2.1 7.1 1 6.8 9.7 7.3 15.1-8.1 15.1-8.1 17.8-27.9 20.6-31.1 10.7-23.8 10.7-23.8 3.9-3.7.5-7.1-9.1-11.5-12-10.7-6.8 1.3-8.9 5-12.5 19.1-14.9 23.2c-2.4 4.2-.5 7.6-3.9 4.2s-3.9-.8-4.4-5 2.1-27.7.5-29.5-4.2-3.1-11-3.4-12 0-12 0-1.8 12.3-2.4 13.8-3.1 13.8-4.2 14.4c-1 .5-1.3 1.3-5.2-1-3.9-2.4-21.7-1.3-22.7-2.6s1-6 1-6 14.4-2.1 17-1.6 6 1.6 8.6 1 7.6-5.7 7.6-5.7L331.5 78l-18-5.5c-.8 0-24.8-2.4-26.1-1.3-1.3 1-7.1 1.8-10.4 6.5s-5.5 14.4-5.5 12-3.7-13.8-3.7-13.8 5.7-2.9-3.7-3.4-14.6-2.9-16.7-.5-4.7 3.1-5.5 7.8l-3.7 21.2s-8.1-11.2-9.7-14.6-2.6-11.5-5.2-12.5-13.8-1.3-15.7.3c-1.8 1.6-7.1 3.1-8.1 3.9s-3.4 2.9-3.7 5.5.3 9.1-.5 11.8c-.8 2.6-.8 5.5-2.1 4.4s-8.6-9.4-9.9-10.4-5.2-8.9-8.1-9.1c-2.9-.3-22.5-4.2-29.8 0s-13.8 7.1-15.1 8.6c-1.3 1.6-9.4 14.1-9.4 14.1s-4.7-12.3-7.6-13.1-9.4-3.9-12.8-2.9-9.1 5.5-9.1 5.5-1.6 1.8-2.1 4.4-.5 18 0 19.1c.5 1 0 6.3 0 6.3s-7.6 1.6-8.4 2.1c-.6.3-4.3-3.8-4.3-3.8zm129.8 130.2c-.8-.8-14.6-5-16.7-4.7s-6.5-1.9-13.1-.5-12 3.9-15.1 6.5-5.5-1.6-6.8 4.4-2.1 25.6-1.6 26.9 3.7 34.5 7.1 42 5 10.7 9.7 12.5 26.1-.3 28.7-.5c2.6-.3 13.8-4.2 17.8-7.1 3.9-2.9 8.6-6.3 8.6-8.9s.8-9.4.8-9.4l-8.1-18.8-6-5.7s0-3.4 1-5 4.7-5.5 4.7-7.1-2.4-9.1-2.9-11.5 1.6-12 1.6-12l7.6-5.7s6-1.8 7.3-1.6c1.3.3 5.2 2.4 6 2.9s2.4 1.8 3.9 5.7c1.6 3.9 1.7 15.3 1.4 16.1s1.7 4.8 1 14.4 3.1.3 3.9 2.6c.8 2.4 3.6-4.4 7-3.1s4 3.7 8.7.3 1.6-10.3 1.6-10.3.8-14.1 1.6-17.5-.1-6.3 3.1-8.6c3.2-2.4-5.5-6 5-3.9 10.4 2.1 10.4 2.1 11.2 2.6s1.6 1.3 3.4 1.3 6.6-1 9.4-1.6 4.7-1.6 7.8-.5c3.1 1 3.1-.8 6.5 1.6s4.7.3 6.3 3.7 5 14.9 6.8 18 3.1 4.7 3.1 4.7.5-13.3 2.1-15.7 3.7-6.8 5.5-7.8 4.4-.5 9.7-1.3c5.2-.8 13.3.8 13.3.8s.5 5.5 1 7.6 0 37.3 0 37.3-.5 29.5-2.4 30c-1.8.5-5 4.4-10.4 4.4-5.5 0-12 1-14.4-.8s-8.6-7.3-9.9-9.7-4.7-5.7-4.7-5.7-1.8 8.6-3.1 9.7c-1.3 1-2.1 3.4-8.1 3.4s-15.4-.8-15.4-.8-2.9-.5-4.2-3.4-1-9.4-3.4-5 1.6 3.9-3.4 6.5-7.8 5.2-11.2 7.1-.5 2.1-8.4 2.6c-7.8.5-6 1.8-12.3.3s-10.7-3.1-13.8-5c-3.1-1.8-7.3-4.4-7.3-4.4l-4.2-23-13.1-13.2 4.8-10.4-2.6-17.4-6.4-8.3z"/><path d="M139.6 163.4l13.1 1.8 11.2 8.1 4.2 7.8s0-12.5.5-13.3 6-7.3 8.9-7.1c2.9.3 9.7 1.8 10.4 2.1.8.3 5.2 6.8 4.7 9.9s1 11 1.6 15.7l1.6 12.3s-1.6 0 3.1-1 3.1-4.4 9.9-2.1c6.8 2.4 11.2 6.8 10.7 4.2s-3.7-21.2-2.1-25.9 1.3-9.1 3.1-12.5 3.9-6.8 7.1-6.3 8.1.8 9.9 2.4 3.7 6 3.7 6 .6-2.6 4.4-3.7c3.9-1 6.5-1.8 10.2-1s3.4-.3 6 1.3 2.6-.3 7.1 6.8 7.8 16.7 8.9 17.8c1 1 2.6 8.4 2.6 3.1s-.8-13.3 0-15.7-1-7.1 2.4-9.4c3.4-2.4-.3-6 7.6-5.7 7.8.3 9.4-.3 13.1 1.8s6.3 3.4 7.1 5-1.6-3.9.8-4.2 1.6-1.2 6.3-1.3c4.6-.1 6.8-1.3 10.4 0 3.7 1.3 11.5 7.1 12.2 9s2.4 9.4 5.2 15.3 1 16.5 3.3 8.5 3.7-17.9 6.1-21.9-2.1-5.6 5.7-6.3 12.5-.9 14.8.7 4.7.2 4.9 4.5c.2 4.4-.3 15.1-.2 15.7.2.5 1.7-14.6 3.3-15.1s4.4-2.8 8.9-.5 7.1 2.6 9.6 4.2c2.4 1.6 3 .5 3.1 5 .2 4.5-.7 14.8-.3 19l.5 8.4s2.4 4.9 3.1 4.8 2.4-.3 6-5.8 7.1-11.7 9.4-15c2.3-3.2 3.5-6.4 6-8 2.6-1.6 2.3-4.5 8.7-2.1s11.1 5.1 12.1 7.8c.9 2.7 1.4.3-1.5 8.8s-7.9 15.2-10.1 20.2-12.8 23-17.9 29-11.6 10.2-14.2 11.1-3.4 3.4-8.8 0-9.5-3.4-8.1-9.6c1.4-6.3 2.7-15 2.1-15.9s-1.6-1-5.7-3.1-7.4-10.3-9.7-4.2c-2.3 6.2-.3 12.6-3.5 16.9-3.1 4.3-.2 5.5-6.3 5.3-6-.1-12.3 2-16.2-1.4s-6-5.1-8.1-7.9-4.1-13-5.8-8.8-2.2 8-4.9 10.4-8.2 3.6-11.7 3.5-10.9-4.2-13.5-4.1c-2.6.2-3.1 1.2-11 1.4-7.8.2-11.3 0-14.1-2.3s-10.1-8.4-10.4-9.4-.9 11.7-3 12.5c-2.1.9-1.4.9-9.2 1.4s-9.7 1.9-13.6-1c-3.8-3-4.4-13.2-7-9.7s-2.6 6.3-8.2 9.6-7.8 4.5-12 5.6c-4.2 1-24.2-.4-27-1s.3-2.8-8-.9c-8.4 1.9-9.1-.9-14.1 2.6s-9.7 4.5-12.4 5.4-5.2 1.7-15.1 2.6-11.7 3.3-18.3 0-13.6-18.3-13.4-20-.5-30.3-1.7-35-4.2-12.4-3.8-17.1c.3-4.7 1.6-11.4 3.8-12.5s13.1-4 16.5-4.9c3.4-1 15-2.6 15-2.6z"/></g><g class="C D E F"><path d="M181.9 255.9l4.7 7 8.4.2-5.3 6.6 2.5 8-7.9-3-7 4.8.4-8.3-6.7-5.1 8.1-2.2 2.8-8zm8.1 38.5l5.4 8.3 10 .2-6.2 7.8 2.9 9.5-9.3-3.5-8.2 5.7.4-10-7.9-6 9.6-2.6 3.3-9.4z"/><g class="B"><path d="M78 125s-3.1-8.4-7.3-17.4-10.4-12-21.9-8.7c-14.1 4.1-9.7 22.3-9.7 22.3s10.7 46 13.8 51.6 9.9 7.8 16.8 6.9c3.5-.5 12.5-3 14.8-9 1.9-5-.7-16.6-.7-16.6m161.4-34.9c.6.3-8.9-20.4-15-32-4.6-8.8-4.9-16-22.1-13.9s-13.4 19.1-13.4 19.1 4.2 51.3 6.5 57.2c2.3 6 12.7 5.3 15.5 5 3.6-.3 8.1 0 11.5-4.1s2.4-14.6 2.4-14.6m-158.1-8.8s15.8-5.7 25.6-5.9m-19.9 32.3s17.1-2.6 23.3-5.2m8.7 21.3c-3 .2-5.7-.3-7.4-1.6-4.9-3.8-7.3-16.6-7.3-16.6M90 120.6s-2.6-15.7-1.8-20.9 3.7-9.9 10.3-11.4c6.3-1.4 12.3-2.4 16.9 3.8 5.2 7.1 13.1 55.4 14.6 60.6 1.6 5.2.5 9.1-2.9 11.8m-6.1-61.4s7.7-21.8 31.2-25.1c25-3.5 43.2 17.4 44.9 46.8 1.7 29.5-21.7 37.4-34 38.6-11.3 1.1-27.3-3.9-32.6-12.4m108.7-46.4s1-20.9 2.1-24.4c1-3.5 2.2-6.9 8.5-8 7.2-1.2 15.2 1 15.2 1s3.1.5 4.7 4.6 2.8 59.4.9 67.4-15.1 8-19.7 7.8c-.4 0-.8 0-1.2-.1-5.4-.7-10.2-3.8-13.1-8.5L226.5 128m13 97.5c.1 3.1.4 7.3 2.1 11.6 2.4 5.9 12.6 5.4 15.4 5.2 3.6-.3 8.1.1 11.6-4s2.6-14.6 2.6-14.6m14.8-16.5c.6.3-8.7-20.6-14.6-32.2-4.5-8.9-4.7-16.1-21.9-14.2-3.4.4-6 1.3-8 2.6m38.7 29.1s1.3-20.9 2.4-24.3c1.1-3.5 2.3-6.9 8.6-7.9 7.2-1.1 15.2 1.1 15.2 1.1s3.1.5 4.6 4.7 2.1 59.4 0 67.4c-2 8-15.2 7.8-19.8 7.6-.4 0-.8-.1-1.2-.1-5.4-.7-10.2-4-13-8.6l-9.9-16.6M188.2 245a24.38 24.38 0 0 1-9.8-11.7m-10.9-52.2c-1-6.9-1.4-19 11.1-20.2 21.9-2.1 11.6 26.2 17.2 45 0 0 3.2-6.6 11.6-7.2s11.3 5.3 11.3 5.3-4.8-39.8 5.7-45.1c9-4.5 16 2.4 17.5 6.6 2.7 7.5-1.3 58.5-4.2 66.2-2.3 6.3-11.8 15.6-27.8 17.2-1.2.1-2.4.2-3.5.2m101.4-9.7c3.7 2 8.7 2.4 10.5 2.5 3.6.2 8 1.2 12-2.4 4-3.5 4.6-14.1 4.6-14.1m17-14.3c.6.4-5.8-21.5-10-33.9-3.3-9.4-2.5-16.6-19.8-17.1-5-.1-8.5 1.2-10.9 3.2m37 32.4s4.1-20.5 5.7-23.8 3.2-6.5 9.6-6.7c7.3-.1 14.9 3.2 14.9 3.2s3 .9 4 5.3c.9 4.4-6.1 59.1-9.1 66.8-3.1 7.6-16.2 5.7-20.6 4.8-.4-.1-.8-.2-1.1-.3-5.3-1.5-9.5-5.3-11.7-10.3l-7.6-17.8"/></g><path d="M379.4 294.7s-2.4 29.6 20.9 25.1 31.5-46.7 17.9-43.5c-13.6 3.1-18.8 27.5-18.8 27.5s-13.2-28.6-20-9.1zM143.3 40.6s-2.4 29.6 20.9 25.1 31.5-46.7 17.9-43.5c-13.6 3.1-18.8 27.5-18.8 27.5s-13.2-28.6-20-9.1z"/><g class="B"><path d="M271.1 143.4c1.1 5.9 6.7 8.2 12.2 9.3 2.7.6 19.4 3.2 31.1 2.9 5.1-.1 9.8-3.4 10.9-8.3 1.2-5.5-.7-10.2-4.4-12.7-4.3-2.9-25.7-3.8-25.7-3.8l.7-6.1s18 2.2 25.1.5c5.4-1.3 6-10.1 4.9-13-1.6-4.2-6.1-5.4-9.4-5.8s-17.1-2.6-17.1-2.6L301 97s20.5 2.1 24.4 1.9c8.7-.3 9.3-6.4 9.6-11.7.3-5.2-2.3-8.7-7-10.6-2-.8-10-2.6-19.1-3.5s-18.3-.7-18.3-.7c-14.3.7-15.6 13.7-15.6 13.7l-3.7 19.5"/><path d="M333.1 80.4s1-1.3 4.6-2.1c3.7-.8 15.7.3 18.3 5.2 2.6 5 0 26.6.3 30s3.9 5.7 6.3 4.4 12.2-25.9 18.5-29.2c6.5-3.5 18.1 2.2 20.5 9.7 2.4 7.6-30 62.2-37.7 65.7-5.5 2.5-13 2.7-18.5-2.8s-.7-23-.7-23-11.1-.6-14.5-9.2c-3.5-8.6-2-24.5-1.2-29.4m53.6 72.3s-.4-.4 3.3-1.2c3.7-.7 15.7.5 18.2 5.4 2.5 5-.3 26.6-.1 30s3.8 5.8 6.2 4.5 12.6-25.7 18.9-29c6.6-3.4 18.1 2.4 20.3 10 2.3 7.6-30.8 61.9-38.5 65.2-5.5 2.4-13 2.5-18.4-3-5.4-5.6-.4-23-.4-23s-11-.7-14.4-9.4l-.5-1.2m-187.5.1l9.6 5.7"/><path d="M191.2 228.5l5.7-10.6m29 .3l-9.5 5.8"/><path d="M224.5 226.2l-5.8-10.5"/></g><path d="M160.9 203.6s14.6 3.1 16.8 18.9c2 14.3-2.1 21.2-10.9 27-8.2 5.3-24.3 6-36.3 6.5-12 .6-15.2-6.4-17-12.8-.8-2.9-7.9-50.1-7.9-50.1s-3.3-14 3.4-21.6c5.9-6.6 30.8-9.8 41.4-8.6 11.5 1.4 27.6 26 10.5 40.7z"/></g><path d="M204.6 230.5l8.1-.5-3.4 7.8-4.7-7.3z" class="G"/><g class="B C D E F"><path d="M286.4 312c-.1 3.1.5 4.6 2 9.1 2 6.1 12.2 6.2 15 6.2 3.6 0 8.1.6 11.8-3.3 3.7-3.8 3.5-14.4 3.5-14.4m15.8-15.7c.6.4-7.4-21-12.6-33-4-9.2-3.7-16.3-21-15.5-3.4.2-6.1 1-8.1 2.2m36.9 31.3s2.6-20.8 3.9-24.2 2.7-6.8 9-7.4c7.3-.7 15.1 2 15.1 2s3.1.7 4.3 5c1.3 4.3-1.6 59.4-4.1 67.3-2.5 7.8-15.7 6.9-20.2 6.4-.4 0-.8-.1-1.2-.2-5.4-1-9.9-4.6-12.4-9.4l-8.9-17.2M170.1 247c2.5-.7 6.2-1.2 8.9-1.6 7.4-.9 15.2.3 19.9.8 11.1 1.1 27 26.6 9.6 40.9 0 0 14.5 3.4 16.4 19.3 1.7 14.3-3.5 20.8-12.4 26.3-8.3 5.1-25.4 6.6-35.5 6.1-12-.6-15-6.7-16.7-13.2-.7-2.9-6.8-50.3-6.8-50.3s-3-14.1 3.9-21.5m11-64s.9 14.1 3.9 20"/><path d="M226.4 317.9c1.6 3.8 4.5 8.4 9.8 11.7 0 0 7.9 4.7 18.1 4.2 1.1-.1 2.3-.1 3.5-.2 16-1.7 25.4-10.9 27.8-17.2 2.9-7.7 6.8-58.7 4.2-66.2-1.5-4.2-8.5-11.1-17.5-6.6-10.5 5.2-5.7 45.1-5.7 45.1s-2.9-5.9-11.3-5.3-11.6 7.2-11.6 7.2c-5.6-18.8 4.7-47.1-17.2-45-12.5 1.2-12.1 13.3-11.1 20.2"/><path d="M237.8 305l9.5 5.7"/><path d="M239.3 313.1l5.7-10.6m28.9.3l-9.5 5.8"/><path d="M272.5 310.8l-5.8-10.5"/></g><path d="M252.6 315.1l8.2-.5-3.5 7.8-4.7-7.3z" class="G"/><g class="C D E F"><path d="M216.5 274.4s.9 14.1 3.9 20" class="B"/><path d="M159.3 95.8l5.5 8.3 10 .1-6.1 7.8 3 9.5-9.4-3.4-8.1 5.8.4-10-8-5.9 9.5-2.7 3.2-9.5zm-24 77.6l4.8 7h8.4l-5.2 6.6 2.5 8-7.9-2.8-6.9 4.9.3-8.4-6.8-5 8.1-2.3 2.7-8zm8.5 38.4l5.6 8.2 9.9.1-6.1 7.8 3 9.5-9.3-3.4-8.1 5.8.3-9.9-8-5.9 9.6-2.8 3.1-9.4z"/></g></g><defs><clipPath id="A"><path fill="#fff" d="M0 0h501.1v390.6H0z"/></clipPath><path id="B" d="M467.7 247.2s33.1-13.8 30-47.3c-3-32.5-33.2-40.3-33.2-40.3s7.6-19.2 2.4-28.4c-7.3-12.6-21.1-9.2-21.1-9.2s6.3-25.4-10.6-36-36.4-2.3-36.4-2.3-2.4-37.6-42.6-45.8c-46.9-9.5-66 22.6-66 22.6s1.2-18.1-19.1-22.5-32.6 9-32.6 9-4.9-45.4-62.8-44.4-69.6 52.9-69.6 52.9-18.2-20.1-41.4-6.3C44.8 61.1 43.4 86.8 43.4 86.8s-32 1.4-39.3 29.6 15 42.8 15 42.8-19.5 17.1-9.7 34.5c9.6 17.1 31 12.5 31 12.5s-16 35.5 6.6 57.8 43.8 19.3 43.8 19.3-6.3 19.8 3.8 31.3 26.1 8.7 26.1 8.7 2 18.6 21.3 10.3c0 0 3.9 45.4 58.8 53.3 54.8 7.8 83.7-30.6 83.7-30.6s15.7 19.6 38.1 14.6c22.5-5 22.5-23 22.5-23s11.8 11 19.8-4.7c0 0 37.1 19.5 63.2-2.6 27.1-23 14.1-57.4 14.1-57.4s21.5 3.6 27.8-8c7.9-14.8-2.3-28-2.3-28z"/><path id="C" d="M32.9 134.4a1.79 1.79 0 1 0 0-3.6 1.79 1.79 0 1 0 0 3.6z"/><path id="D" d="M86.6 134.2a1.58 1.58 0 1 0 0-3.2 1.58 1.58 0 1 0 0 3.2z"/><path id="E" d="M100 134.1a1.54 1.54 0 0 0 1.5-1.5 1.54 1.54 0 0 0-1.5-1.5 1.54 1.54 0 0 0-1.5 1.5 1.47 1.47 0 0 0 1.5 1.5z"/><path id="F" d="M126.8 133.9c.7 0 1.3-.6 1.3-1.3s-.6-1.3-1.3-1.3-1.3.6-1.3 1.3c-.1.7.5 1.3 1.3 1.3z"/><path id="G" d="M140.2 133.9c.7 0 1.3-.6 1.3-1.3s-.6-1.3-1.3-1.3-1.3.6-1.3 1.3.6 1.3 1.3 1.3z"/><path id="H" d="M120.1 147.4c.8 0 1.4-.6 1.4-1.4s-.6-1.4-1.4-1.4-1.4.6-1.4 1.4.6 1.4 1.4 1.4z"/><path id="I" d="M180.4 160.6c.7 0 1.2-.5 1.2-1.2s-.5-1.2-1.2-1.2-1.2.5-1.2 1.2.5 1.2 1.2 1.2z"/><path id="J" d="M207.2 160.5a1.11 1.11 0 0 0 1.1-1.1 1.11 1.11 0 0 0-1.1-1.1 1.11 1.11 0 0 0-1.1 1.1 1.11 1.11 0 0 0 1.1 1.1z"/><path id="K" d="M26.2 175a2.22 2.22 0 0 0 2.2-2.2 2.22 2.22 0 0 0-2.2-2.2 2.22 2.22 0 0 0-2.2 2.2 2.22 2.22 0 0 0 2.2 2.2z"/><path id="L" d="M39.6 175a2.22 2.22 0 0 0 2.2-2.2 2.22 2.22 0 0 0-2.2-2.2 2.22 2.22 0 0 0-2.2 2.2c.1 1.2 1 2.2 2.2 2.2z"/><path id="M" d="M66.4 174.8c1.1 0 2-.9 2-2s-.9-2-2-2-2 .9-2 2 .9 2 2 2z"/><path id="N" d="M93.3 174.7c1 0 1.9-.8 1.9-1.9 0-1-.8-1.9-1.9-1.9-1 0-1.9.8-1.9 1.9 0 1 .8 1.9 1.9 1.9z"/><path id="O" d="M106.7 174.6a1.79 1.79 0 1 0 0-3.6 1.79 1.79 0 0 0-1.8 1.8c-.1 1 .8 1.8 1.8 1.8z"/><path id="P" d="M120.1 174.5c.9 0 1.7-.8 1.7-1.7s-.8-1.7-1.7-1.7-1.7.8-1.7 1.7c0 1 .7 1.7 1.7 1.7z"/><path id="Q" d="M160.3 174.3a1.54 1.54 0 0 0 1.5-1.5 1.54 1.54 0 0 0-1.5-1.5 1.54 1.54 0 0 0-1.5 1.5c0 .9.6 1.5 1.5 1.5z"/><path id="R" d="M173.7 174.3a1.54 1.54 0 0 0 1.5-1.5 1.54 1.54 0 0 0-1.5-1.5 1.54 1.54 0 0 0-1.5 1.5 1.54 1.54 0 0 0 1.5 1.5z"/><path id="S" d="M240.7 174c.6 0 1.2-.5 1.2-1.2 0-.6-.5-1.2-1.2-1.2-.6 0-1.2.5-1.2 1.2.1.7.6 1.2 1.2 1.2z"/><path id="T" d="M294.3 173.7c.5 0 .9-.4.9-.9s-.4-.9-.9-.9-.9.4-.9.9.4.9.9.9z"/><path id="U" d="M19.5 188.6c1.3 0 2.4-1.1 2.4-2.4s-1.1-2.4-2.4-2.4-2.4 1.1-2.4 2.4c0 1.4 1.1 2.4 2.4 2.4z"/><path id="V" d="M32.9 188.6a2.26 2.26 0 1 0 0-4.6 2.26 2.26 0 0 0-2.3 2.3c0 1.2 1 2.3 2.3 2.3z"/><path id="W" d="M381.5 186.9a.68.68 0 1 0 0-1.4.68.68 0 1 0 0 1.4z"/><path id="X" d="M421.7 186.8a.65.65 0 0 0 .6-.6.65.65 0 0 0-.6-.6.65.65 0 0 0-.6.6.65.65 0 0 0 .6.6z"/><path id="Y" d="M26.2 202.2a2.65 2.65 0 0 0 2.6-2.6 2.65 2.65 0 0 0-2.6-2.6 2.65 2.65 0 0 0-2.6 2.6c0 1.5 1.2 2.6 2.6 2.6z"/><path id="Z" d="M53 202.1c1.4 0 2.5-1.1 2.5-2.5s-1.1-2.5-2.5-2.5-2.5 1.1-2.5 2.5c.1 1.4 1.2 2.5 2.5 2.5z"/><path id="a" d="M79.9 201.9a2.26 2.26 0 1 0 0-4.6 2.26 2.26 0 0 0-2.3 2.3c-.1 1.3 1 2.3 2.3 2.3z"/><path id="b" d="M120.1 201.7c1.1 0 2.1-.9 2.1-2.1s-.9-2.1-2.1-2.1-2.1.9-2.1 2.1.9 2.1 2.1 2.1z"/><path id="c" d="M160.3 201.5c1 0 1.9-.8 1.9-1.9 0-1-.8-1.9-1.9-1.9-1 0-1.9.8-1.9 1.9s.9 1.9 1.9 1.9z"/><path id="d" d="M200.5 201.3a1.58 1.58 0 1 0 0-3.2 1.58 1.58 0 0 0-1.6 1.6c0 .8.7 1.6 1.6 1.6z"/><path id="e" d="M334.6 200.7c.6 0 1-.5 1-1 0-.6-.5-1-1-1-.6 0-1 .5-1 1-.1.5.4 1 1 1z"/><path id="f" d="M46.3 215.7c1.5 0 2.6-1.2 2.6-2.6 0-1.5-1.2-2.6-2.6-2.6-1.5 0-2.6 1.2-2.6 2.6a2.65 2.65 0 0 0 2.6 2.6z"/><path id="g" d="M100 215.4a2.26 2.26 0 1 0 0-4.6 2.26 2.26 0 0 0-2.3 2.3c-.1 1.2 1 2.3 2.3 2.3z"/><path id="h" d="M113.4 215.3a2.26 2.26 0 1 0 0-4.6 2.26 2.26 0 1 0 0 4.6z"/><path id="i" d="M140.2 215.2c1.2 0 2.1-.9 2.1-2.1s-.9-2.1-2.1-2.1-2.1.9-2.1 2.1c0 1.1.9 2.1 2.1 2.1z"/><path id="j" d="M79.9 229.1a2.69 2.69 0 1 0 0-5.4 2.69 2.69 0 1 0 0 5.4z"/><path id="k" d="M120.1 228.9c1.4 0 2.5-1.1 2.5-2.5s-1.1-2.5-2.5-2.5-2.5 1.1-2.5 2.5 1.1 2.5 2.5 2.5z"/><path id="l" d="M46.3 242.9a3.12 3.12 0 0 0 3.1-3.1 3.12 3.12 0 0 0-3.1-3.1 3.12 3.12 0 0 0-3.1 3.1c.1 1.7 1.4 3.1 3.1 3.1z"/><path id="m" d="M73.1 242.7c1.6 0 2.9-1.3 2.9-2.9s-1.3-2.9-2.9-2.9-2.9 1.3-2.9 2.9 1.3 2.9 2.9 2.9z"/><path id="n" d="M86.6 242.7c1.6 0 2.8-1.3 2.8-2.8 0-1.6-1.3-2.8-2.8-2.8-1.6 0-2.8 1.3-2.8 2.8-.1 1.5 1.2 2.8 2.8 2.8z"/><path id="o" d="M160.3 255.9a2.65 2.65 0 0 0 2.6-2.6 2.65 2.65 0 0 0-2.6-2.6 2.65 2.65 0 0 0-2.6 2.6c0 1.4 1.1 2.6 2.6 2.6z"/><path id="p" d="M187.1 255.7c1.3 0 2.4-1.1 2.4-2.4s-1.1-2.4-2.4-2.4-2.4 1.1-2.4 2.4 1.1 2.4 2.4 2.4z"/><path id="q" d="M227.3 255.4a2.22 2.22 0 0 0 2.2-2.2 2.22 2.22 0 0 0-2.2-2.2 2.22 2.22 0 0 0-2.2 2.2c0 1.3 1 2.2 2.2 2.2z"/><path id="r" d="M374.8 254.7c.8 0 1.4-.6 1.4-1.4s-.6-1.4-1.4-1.4-1.4.6-1.4 1.4c0 .7.6 1.4 1.4 1.4z"/><path id="s" d="M73.1 270a3.33 3.33 0 0 0 3.3-3.3 3.33 3.33 0 0 0-3.3-3.3 3.33 3.33 0 0 0-3.3 3.3 3.33 3.33 0 0 0 3.3 3.3z"/><path id="t" d="M100 269.8a3.12 3.12 0 0 0 3.1-3.1 3.12 3.12 0 0 0-3.1-3.1 3.12 3.12 0 0 0-3.1 3.1c-.1 1.7 1.3 3.1 3.1 3.1z"/><path id="u" d="M180.4 269.3a2.65 2.65 0 0 0 2.6-2.6 2.65 2.65 0 0 0-2.6-2.6 2.65 2.65 0 0 0-2.6 2.6 2.65 2.65 0 0 0 2.6 2.6z"/><path id="v" d="M79.9 283.6c2 0 3.6-1.6 3.6-3.6s-1.6-3.6-3.6-3.6-3.6 1.6-3.6 3.6 1.6 3.6 3.6 3.6z"/><path id="w" d="M160.3 283.1c1.7 0 3-1.3 3-3s-1.3-3-3-3-3 1.3-3 3a3.01 3.01 0 0 0 3 3z"/><path id="x" d="M388.2 281.8c.9 0 1.7-.8 1.7-1.7s-.8-1.7-1.7-1.7-1.7.8-1.7 1.7.7 1.7 1.7 1.7z"/><path id="y" d="M140.2 296.7a3.33 3.33 0 0 0 3.3-3.3 3.33 3.33 0 0 0-3.3-3.3 3.33 3.33 0 0 0-3.3 3.3c0 1.9 1.5 3.3 3.3 3.3z"/><path id="z" d="M167 296.6a3.12 3.12 0 0 0 3.1-3.1 3.12 3.12 0 0 0-3.1-3.1 3.12 3.12 0 0 0-3.1 3.1 3.12 3.12 0 0 0 3.1 3.1z"/><path id="AA" d="M354.7 295.4c1.1 0 2-.9 2-2s-.9-2-2-2-2 .9-2 2a1.94 1.94 0 0 0 2 2z"/><path id="AB" d="M93.3 310.8a3.84 3.84 0 1 0 0-7.8 3.84 3.84 0 0 0-3.9 3.9c0 2.1 1.7 3.9 3.9 3.9z"/><path id="AC" d="M153.6 351.2c2.3 0 4.1-1.8 4.1-4.1s-1.8-4.1-4.1-4.1-4.1 1.8-4.1 4.1 1.8 4.1 4.1 4.1z"/><path id="AD" d="M187.1 364.7a4.23 4.23 0 0 0 4.2-4.2 4.23 4.23 0 0 0-4.2-4.2 4.23 4.23 0 0 0-4.2 4.2 4.23 4.23 0 0 0 4.2 4.2z"/><path id="AE" d="M77.4 125s-3.1-8.4-7.3-17.4-10.4-12-21.9-8.7c-14.1 4.1-9.7 22.3-9.7 22.3s10.7 46 13.8 51.6 9.9 7.8 16.8 6.9c3.5-.5 12.5-3 14.8-9 1.9-5-.7-16.6-.7-16.6"/><path id="AF" d="M89.3 120.5s-2.6-15.7-1.8-20.9 3.7-9.9 10.3-11.4c6.3-1.4 12.3-2.4 16.9 3.8 5.2 7.1 13.1 55.4 14.6 60.6 1.6 5.2.5 9.1-2.9 11.8"/><path id="AG" d="M238.9 225.4c.1 3.1.4 7.3 2.1 11.6 2.4 5.9 12.6 5.4 15.4 5.2 3.6-.3 8.1.1 11.6-4s2.6-14.6 2.6-14.6"/><path id="AH" d="M378.7 294.7s-2.4 29.6 20.9 25.1 31.5-46.7 17.9-43.5c-13.6 3.1-18.8 27.5-18.8 27.5s-13.2-28.6-20-9.1z"/><path id="AI" d="M332.5 80.3s1-1.3 4.6-2.1c3.7-.8 15.7.3 18.3 5.2 2.6 5 0 26.6.3 30s3.9 5.7 6.3 4.4 12.2-25.9 18.5-29.2c6.5-3.5 18.1 2.2 20.5 9.7 2.4 7.6-30 62.2-37.7 65.7-5.5 2.5-13 2.7-18.5-2.8s-.7-23-.7-23-11.1-.6-14.5-9.2c-3.5-8.6-2-24.5-1.2-29.4"/><path id="AJ" d="M329.1 278.9s2.6-20.8 3.9-24.2 2.7-6.8 9-7.4c7.3-.7 15.1 2 15.1 2s3.1.7 4.3 5c1.3 4.3-1.6 59.4-4.1 67.3-2.5 7.8-15.7 6.9-20.2 6.4-.4 0-.8-.1-1.2-.2-5.4-1-9.9-4.6-12.4-9.4l-8.9-17.2"/><path id="AK" d="M169.5 247c2.5-.7 6.2-1.2 8.9-1.6 7.4-.9 15.2.3 19.9.8 11.1 1.1 27 26.6 9.6 40.9 0 0 14.5 3.4 16.4 19.3 1.7 14.3-3.5 20.8-12.4 26.3-8.3 5.1-25.4 6.6-35.5 6.1-12-.6-15-6.7-16.7-13.2-.7-2.9-6.8-50.3-6.8-50.3s-3-14.1 3.9-21.5"/></defs></svg>