<svg width="84" height="66" viewBox="0 0 84 66" fill="none" xmlns="http://www.w3.org/2000/svg">
<path d="M77.9693 41.7903C77.9693 41.7903 83.4907 39.4953 82.981 33.9026C82.4886 28.4783 77.4466 27.1779 77.4466 27.1779C77.4466 27.1779 78.7196 23.9656 77.8393 22.4429C76.6191 20.332 74.3245 20.9033 74.3245 20.9033C74.3245 20.9033 75.3701 16.6618 72.5525 14.8898C69.7349 13.1178 66.4824 14.5126 66.4824 14.5126C66.4824 14.5126 66.0757 8.23673 59.3654 6.87285C51.535 5.27954 48.3569 10.649 48.3569 10.649C48.3569 10.649 48.5599 7.628 45.1614 6.90165C41.7628 6.1753 39.7292 8.38316 39.7292 8.38316C39.7292 8.38316 38.9157 0.801399 29.2423 0.975613C19.569 1.14983 17.6204 9.80706 17.6204 9.80706C17.6204 9.80706 14.5833 6.44863 10.7067 8.76109C7.39487 10.7364 7.16269 15.0369 7.16269 15.0369C7.16269 15.0369 1.8176 15.2694 0.597411 19.9753C-0.622777 24.6813 3.09574 27.1217 3.09574 27.1217C3.09574 27.1217 -0.157748 29.9681 1.46883 32.8731C3.06728 35.7274 6.63971 34.9651 6.63971 34.9651C6.63971 34.9651 3.96716 40.8911 7.74364 44.6096C11.5201 48.3282 15.0483 47.8333 15.0483 47.8333C15.0483 47.8333 14.0044 51.1441 15.6879 53.0621C17.3714 54.9802 20.0453 54.5145 20.0453 54.5145C20.0453 54.5145 20.3787 57.6229 23.6033 56.2292C23.6033 56.2292 24.2573 63.811 33.4081 65.1183C42.5588 66.4256 47.3806 60.0057 47.3806 60.0057C47.3806 60.0057 49.9955 63.2736 53.7428 62.4457C57.4902 61.6179 57.4895 58.6099 57.4895 58.6099C57.4895 58.6099 59.4648 60.4398 60.8009 57.8256C60.8009 57.8256 66.9989 61.0801 71.3457 57.3897C75.8623 53.5553 73.699 47.8035 73.699 47.8035C73.699 47.8035 77.2868 48.4002 78.3328 46.466C79.6693 43.9982 77.9693 41.7903 77.9693 41.7903Z" fill="#EFD378"/>
<path d="M24.9551 6.23492C24.9551 6.23492 23.8234 6.23492 23.7932 7.80353C23.763 9.37215 23.8223 11.5221 25.8556 11.58C27.8889 11.638 29.022 10.6794 29.8063 9.92429C30.5907 9.16913 31.5783 6.93212 31.5211 6.0607C31.4638 5.18929 30.7666 3.91114 30.0975 4.28872C29.4284 4.6663 27.8896 6.38067 27.8896 6.38067L27.0474 8.64649L25.6238 6.67114L24.9551 6.23492Z" fill="#E688A3"/>
<path d="M65.1303 49.0821C65.1303 49.0821 62.8645 48.2107 63.2133 49.9535C63.562 51.6964 63.9677 53.2653 63.9677 53.2653C63.9677 53.2653 65.8851 54.6597 67.3375 53.6721C68.7898 52.6844 70.4168 50.0712 70.4747 49.8376C70.5327 49.6041 70.8235 47.3973 70.6493 47.223C70.4751 47.0488 70.591 46.4096 69.9521 46.6421C69.3132 46.8746 68.7319 46.5841 68.2672 47.3966C67.8025 48.209 66.5823 49.7786 66.524 50.1854C66.4887 50.4354 66.4695 50.6871 66.4661 50.9398L65.1303 49.0821Z" fill="#E688A3"/>
<path d="M12.6088 20.671C12.6088 20.671 11.6502 18.3761 11.3296 17.9405C11.0089 17.505 11.1262 16.9528 10.2548 16.8945C9.3834 16.8362 8.42488 16.9528 8.01815 17.1559C7.61142 17.3589 7.14639 17.6789 6.94337 17.9103C6.74035 18.1418 5.98313 18.6364 6.07161 19.2478C6.16009 19.8593 7.23384 23.6054 7.11758 23.7508C7.00133 23.8962 8.42488 28.4566 8.6862 29.1538C8.94752 29.851 8.91872 30.1995 9.9352 30.4611C10.9517 30.7228 12.2302 30.5191 12.6369 30.2578C13.0436 29.9964 13.4504 29.8219 13.7117 29.2975C13.973 28.7732 14.3218 27.9319 14.2635 27.293C14.2052 26.6541 13.7408 26.625 13.915 26.2762C14.0893 25.9274 15.3674 25.579 15.3674 25.579C15.3674 25.579 15.8324 26.6829 16.0066 27.2347C16.1809 27.7865 15.9483 28.542 16.7611 28.7745C17.5739 29.0071 19.1723 28.8908 19.637 28.7454C20.1017 28.6 20.7989 28.5129 21.1765 28.0773C21.5541 27.6418 21.7286 26.7992 21.6124 26.3345C21.4961 25.8698 22.3387 26.6538 22.8326 27.0314C23.3264 27.4089 24.1395 27.9031 25.0984 27.9611C26.0572 28.019 25.621 28.1644 27.0737 27.9319C28.5264 27.6994 29.6009 27.4672 30.1818 27.0026C30.7628 26.5379 31.0824 26.1891 31.5762 25.4339C32.0701 24.6788 32.4188 24.0965 32.651 23.7491C32.8832 23.4017 32.7964 22.6743 32.9998 23.7491C33.2032 24.8239 32.8544 24.853 33.232 25.4339C33.6095 26.0149 33.5224 26.4504 34.3637 26.5087C35.2049 26.567 35.3513 26.77 36.1357 26.5667C36.92 26.3633 36.9491 26.5087 37.3847 26.16C37.8202 25.8112 37.9656 25.6373 38.0239 24.9401C38.0822 24.2429 38.2561 23.3423 38.2561 23.3423C38.2561 23.3423 39.8538 25.4343 40.5222 25.7244C41.1906 26.0145 41.4516 26.0149 42.2651 26.0728C43.0785 26.1308 44.6759 25.056 44.8069 25.0999C44.938 25.1438 45.7566 25.473 46.4188 25.7515C47.081 26.03 48.7281 26.6668 50.0354 26.5358C51.3427 26.4048 52.1274 26.8846 52.6075 26.4923C53.0876 26.0999 53.4789 26.1874 53.7392 25.708C53.9995 25.2285 54.3054 24.27 54.0876 24.0522C53.8699 23.8345 54.0005 23.4857 53.4776 23.2244C52.9546 22.963 51.4298 22.2658 50.6016 22.2223C49.7734 22.1787 49.2511 22.1352 49.2511 22.1352L49.3818 21.6551C49.3818 21.6551 50.3839 21.7422 51.3424 21.6551C52.3009 21.5678 52.9985 21.5678 53.3469 21.4372C53.6953 21.3065 54.0005 20.8271 54.0005 20.8271C54.0005 20.8271 54.0876 20.4783 54.3054 21.0884C54.4272 21.434 54.5743 21.7703 54.7461 22.094C54.7461 22.094 55.574 23.0093 56.1405 23.3578C56.707 23.7062 56.9248 23.4013 57.0119 23.8379C57.099 24.2745 56.7941 25.4065 56.8812 25.8859C56.9684 26.3654 56.4454 26.4521 57.2297 27.0622C58.014 27.6723 57.4042 28.1939 58.8415 28.2824C60.2788 28.3709 61.3686 26.9316 61.3686 26.9316C61.3686 26.9316 64.3317 22.2693 64.8111 21.7463C65.2905 21.2232 66.5975 17.7811 66.5975 17.7811C66.5975 17.7811 67.2511 17.171 66.6846 16.6044C66.118 16.0379 65.1595 14.687 64.6801 14.818C64.2007 14.949 63.5484 15.0358 63.1986 15.6459C62.8488 16.256 61.1066 18.8267 60.715 19.5239C60.3234 20.2211 60.6279 20.7876 60.0613 20.2211C59.4948 19.6545 59.4077 20.0904 59.3206 19.3932C59.2335 18.696 59.6694 14.7745 59.4077 14.4693C59.146 14.164 58.7105 13.9463 57.5778 13.9027C56.445 13.8592 55.5733 13.9027 55.5733 13.9027C55.5733 13.9027 55.2684 15.9508 55.1813 16.2124C55.0942 16.4741 54.6583 18.5218 54.4841 18.6089C54.3099 18.696 54.266 18.8267 53.6127 18.4347C52.9594 18.0427 49.996 18.2166 49.8214 17.9988C49.6469 17.7811 49.996 16.9967 49.996 16.9967C49.996 16.9967 52.3925 16.648 52.828 16.7351C53.2636 16.8222 53.8304 16.9967 54.266 16.9093C54.7015 16.8218 55.5297 15.9508 55.5297 15.9508L55.137 13.5546C55.137 13.5546 52.2611 12.6397 52.1305 12.6397C51.9998 12.6397 47.9908 12.2473 47.7731 12.4216C47.5553 12.5958 46.5964 12.7268 46.0299 13.5111C45.4633 14.2954 45.1149 15.9076 45.1149 15.5156C45.1149 15.1236 44.5048 13.2059 44.5048 13.2059C44.5048 13.2059 45.465 12.7257 43.8947 12.6397C42.3244 12.5536 41.4547 12.1595 41.1063 12.5526C40.7578 12.9456 40.3219 13.0752 40.1909 13.8595C40.0599 14.6438 39.5812 17.3891 39.5812 17.3891C39.5812 17.3891 38.2303 15.5156 37.9694 14.949C37.7084 14.3825 37.5338 13.0317 37.098 12.8571C36.6621 12.6825 34.7886 12.6393 34.4837 12.9006C34.1788 13.162 33.3071 13.4236 33.1329 13.5543C32.9586 13.685 32.5663 14.0344 32.5228 14.4693C32.4792 14.9041 32.5663 15.9943 32.4357 16.4302C32.305 16.8661 32.305 17.3452 32.0869 17.171C31.8688 16.9967 30.6493 15.6023 30.4312 15.4278C30.213 15.2532 29.5597 13.9463 29.0803 13.9027C28.6008 13.8592 25.3329 13.2055 24.1131 13.9027C22.8933 14.5999 21.803 15.079 21.5836 15.3403C21.3641 15.6017 20.0149 17.6936 20.0149 17.6936C20.0149 17.6936 19.232 15.6466 18.7526 15.5149C18.2731 15.3832 17.184 14.8612 16.6178 15.0348C16.0516 15.2083 15.0927 15.9497 15.0927 15.9497C14.9209 16.1665 14.8015 16.42 14.7439 16.6905C14.6568 17.1264 14.6568 19.6971 14.7439 19.8713C14.831 20.0455 14.7439 20.9173 14.7439 20.9173C14.7439 20.9173 13.4802 21.1786 13.3495 21.2657C13.2189 21.3528 12.6088 20.671 12.6088 20.671Z" fill="#E688A3"/>
<path d="M34.2653 42.401C34.1346 42.2704 31.8253 41.5732 31.4768 41.6167C31.1284 41.6603 30.3873 41.2971 29.2981 41.5296C28.2089 41.7621 27.2936 42.1833 26.7706 42.6188C26.2476 43.0543 25.8556 42.3575 25.6389 43.3595C25.4222 44.3616 25.2901 47.6299 25.3772 47.8476C25.4643 48.0654 25.9873 53.5995 26.5539 54.8632C27.1204 56.1269 27.3817 56.6496 28.1657 56.9551C28.9497 57.2607 32.5232 56.9112 32.959 56.8677C33.3949 56.8241 35.2684 56.1705 35.922 55.6914C36.5757 55.2123 37.36 54.6454 37.36 54.2099C37.36 53.7744 37.4907 52.6413 37.4907 52.6413L36.1398 49.5037L35.1377 48.5435C35.1377 48.5435 35.1377 47.9769 35.312 47.7156C35.4862 47.4543 36.0963 46.8006 36.0963 46.539C36.0963 46.2773 35.7039 45.0139 35.6161 44.6219C35.5284 44.2299 35.8778 42.6174 35.8778 42.6174L37.1412 41.6572C37.1412 41.6572 38.1436 41.352 38.3614 41.3959C38.5792 41.4398 39.2328 41.7878 39.3635 41.876C39.4941 41.9641 39.7558 42.1812 40.0171 42.8362C40.2784 43.4912 40.2915 45.3929 40.2496 45.5235C40.2078 45.6542 40.5401 46.3222 40.4094 47.9344C40.2788 49.5466 40.9321 47.9779 41.0631 48.3703C41.1941 48.7626 41.6584 47.6295 42.225 47.8473C42.7915 48.0651 42.893 48.4718 43.6773 47.9056C44.4616 47.3394 43.9387 46.1909 43.9387 46.1909C43.9387 46.1909 44.0697 43.838 44.2003 43.2714C44.331 42.7049 44.1856 42.2258 44.7233 41.8335C45.261 41.4411 43.808 40.8314 45.5512 41.1798C47.2943 41.5282 47.294 41.5286 47.4247 41.6157C47.5553 41.7028 47.6863 41.8335 47.9912 41.8335C48.2961 41.8335 49.0886 41.662 49.5598 41.5721C50.031 41.4823 50.3441 41.3105 50.8671 41.485C51.3901 41.6596 51.3901 41.354 51.9563 41.7463C52.5225 42.1387 52.7406 41.7899 53.0023 42.3564C53.2639 42.923 53.8301 44.84 54.134 45.363C54.4378 45.886 54.657 46.1473 54.657 46.1473C54.657 46.1473 54.7441 43.9251 55.0054 43.5327C55.2667 43.1404 55.6155 42.401 55.9207 42.2258C56.2259 42.0505 56.6615 42.1387 57.5325 42.0077C58.4036 41.8767 59.7548 42.1387 59.7548 42.1387C59.7548 42.1387 59.8419 43.0536 59.929 43.4021C60.0161 43.7505 59.929 49.6333 59.929 49.6333C59.929 49.6333 59.8419 54.5569 59.537 54.6441C59.2322 54.7312 58.7088 55.3848 57.7939 55.3848C56.8789 55.3848 55.7894 55.5594 55.3974 55.2542C55.0054 54.9489 53.9594 54.0343 53.7417 53.6423C53.5239 53.2503 52.9573 52.6821 52.9573 52.6821C52.9573 52.6821 52.6521 54.12 52.4344 54.2939C52.2166 54.4678 52.0856 54.8604 51.0835 54.8604C50.0814 54.8604 48.5114 54.7298 48.5114 54.7298C48.5114 54.7298 48.0313 54.6423 47.8142 54.1632C47.5972 53.6842 47.6397 52.5946 47.2477 53.3354C46.8557 54.0761 47.509 53.989 46.6812 54.4246C45.8533 54.8601 45.3739 55.296 44.8077 55.6012C44.2415 55.9064 44.7206 55.9496 43.4133 56.0367C42.106 56.1238 42.4109 56.342 41.3652 56.0803C40.3196 55.8186 39.5788 55.5577 39.0559 55.2524C38.5329 54.9472 37.8357 54.5117 37.8357 54.5117L37.1385 50.6772L34.9598 48.4694L35.7588 46.7266L35.3229 43.8215L34.2653 42.401Z" fill="#E688A3"/>
<path d="M23.1099 27.8028L25.2886 28.108L27.1624 29.4585L27.8596 30.7658C27.8596 30.7658 27.8596 28.6738 27.9467 28.5435C28.0339 28.4132 28.9488 27.3237 29.4283 27.3672C29.9077 27.4108 31.0402 27.6721 31.1712 27.7156C31.3022 27.7592 32.0426 28.8474 31.9555 29.3714C31.8684 29.8954 32.13 31.2017 32.2171 31.986C32.3042 32.7703 32.4784 34.034 32.4784 34.034C32.4784 34.034 32.2171 34.034 33.0014 33.8595C33.7857 33.6849 33.5241 33.1187 34.6572 33.511C35.7902 33.9034 36.5307 34.6427 36.4435 34.2082C36.3564 33.7737 35.8338 30.6787 36.0951 29.8944C36.3564 29.11 36.3129 28.3693 36.6181 27.8024C36.9233 27.2355 37.2697 26.6707 37.7944 26.7568C38.3191 26.8429 39.1452 26.8874 39.4501 27.1488C39.755 27.4101 40.0602 28.1512 40.0602 28.1512C40.0602 28.1512 40.1552 27.7153 40.801 27.5411C41.4467 27.3669 41.8905 27.2359 42.5006 27.3669C43.1107 27.4979 43.0668 27.3233 43.5027 27.5846C43.9385 27.846 43.9382 27.5411 44.679 28.7164C45.4197 29.8916 45.9862 31.5052 46.1605 31.6794C46.3347 31.8536 46.5963 33.0738 46.5963 32.2024C46.5963 31.3309 46.4657 29.9801 46.5963 29.5881C46.727 29.1961 46.4221 28.4115 46.9887 28.0192C47.5552 27.6268 46.9451 27.0171 48.2521 27.0589C49.559 27.1008 49.8207 27.0154 50.4308 27.3641C51.0409 27.7129 51.4767 27.9303 51.6074 28.192C51.7381 28.4537 51.3457 27.5383 51.7381 27.4948C52.1304 27.4512 52.0124 27.2979 52.7837 27.2767C53.555 27.2554 53.9154 27.0589 54.5269 27.2767C55.1383 27.4945 56.4439 28.4533 56.5602 28.7729C56.6764 29.0926 56.9669 30.3416 57.4316 31.3292C57.8963 32.3169 57.6062 34.0889 57.9837 32.7528C58.3613 31.4167 58.5938 29.7606 59.0002 29.0926C59.4066 28.4245 58.6518 28.1628 59.9605 28.0466C61.2691 27.9303 62.0524 27.9015 62.4296 28.1628C62.8069 28.4242 63.2139 28.192 63.2431 28.9173C63.2722 29.6426 63.1848 31.4448 63.2139 31.5319C63.2431 31.619 63.5044 29.0919 63.7657 29.0044C64.0271 28.917 64.4921 28.5397 65.2472 28.9173C66.0024 29.2949 66.4383 29.3532 66.845 29.6145C67.2517 29.8758 67.3388 29.7016 67.368 30.4571C67.3971 31.2126 67.2517 32.9263 67.3097 33.6235C67.3677 34.3207 67.3968 35.0179 67.3968 35.0179C67.3968 35.0179 67.8035 35.831 67.9198 35.8118C68.036 35.7926 68.3265 35.7535 68.927 34.8434C69.5275 33.9332 70.1081 32.8886 70.4956 32.3454C70.8832 31.8021 71.0766 31.2802 71.5025 31.0079C71.9284 30.7356 71.89 30.2534 72.9552 30.6595C74.0204 31.0655 74.8143 31.5113 74.969 31.9568C75.1236 32.4023 75.2015 32.0151 74.7172 33.4287C74.233 34.8423 73.4004 35.9665 73.0324 36.7985C72.6644 37.6304 70.9024 40.6329 70.0488 41.6401C69.1952 42.6473 68.1122 43.3442 67.6862 43.4992C67.2603 43.6542 67.1118 44.0695 66.2143 43.4992C65.3169 42.9289 64.6262 42.9375 64.8587 41.8918C65.0912 40.8462 65.3045 39.3935 65.2071 39.2385C65.1097 39.0835 64.9362 39.0643 64.2582 38.7155C63.5802 38.3667 63.0188 36.9922 62.6316 38.0187C62.2444 39.0451 62.5733 40.1295 62.0507 40.8459C61.528 41.5623 62.0119 41.756 61.0047 41.7375C59.9975 41.719 58.9519 42.0667 58.2934 41.505C57.635 40.9433 57.2865 40.6531 56.9378 40.1881C56.589 39.7231 56.2601 38.0193 55.9696 38.7162C55.6792 39.4131 55.6017 40.0537 55.1562 40.4594C54.7107 40.8651 53.7813 41.0595 53.2014 41.0403C52.6215 41.0211 51.3907 40.3335 50.9548 40.3623C50.5189 40.3911 50.4318 40.5657 49.1245 40.5948C47.8172 40.624 47.2383 40.5948 46.7716 40.2176C46.3048 39.8404 45.0867 38.8232 45.0288 38.649C44.9708 38.4748 44.8833 40.5952 44.5349 40.7409C44.1865 40.8867 44.3024 40.886 42.9955 40.9731C41.6885 41.0602 41.3685 41.2927 40.7293 40.7989C40.09 40.305 40.0033 38.591 39.5674 39.1723C39.1315 39.7536 39.1319 40.2179 38.2021 40.7697C37.2724 41.3215 36.8949 41.5242 36.1977 41.6995C35.5005 41.8747 32.1623 41.6264 31.6952 41.5252C31.2281 41.4241 31.7531 41.0602 30.3577 41.3798C28.9622 41.6995 28.8487 41.2348 28.0047 41.8157C27.1607 42.3967 26.3781 42.5702 25.9422 42.7163C25.5064 42.8624 25.0708 43.0067 23.4151 43.1518C21.7594 43.2969 21.4686 43.704 20.365 43.1518C19.2614 42.5997 18.0992 40.1017 18.128 39.8112C18.1568 39.5207 18.0409 34.7566 17.8375 33.9723C17.6341 33.188 17.1403 31.9098 17.1986 31.1259C17.2569 30.3419 17.4705 29.2277 17.8375 29.0339C18.2044 28.8402 20.0162 28.3659 20.5972 28.2205C21.1781 28.0751 23.1099 27.8028 23.1099 27.8028Z" fill="#E688A3"/>
<path d="M30.1744 43.248L30.9509 44.4171L32.3631 44.4435L31.4807 45.5392L31.8888 46.8798L30.5671 46.388L29.4069 47.1902L29.4724 45.7903L28.3472 44.9456L29.7097 44.5721L30.1744 43.248Z" stroke="#1D1D1B" stroke-width="0.7" stroke-linecap="round" stroke-linejoin="round"/>
<path d="M31.5186 49.666L32.4322 51.0515L34.0914 51.0848L33.056 52.3814L33.5372 53.9699L31.984 53.3856L30.6222 54.3341L30.6976 52.6764L29.3745 51.6743L30.9747 51.2339L31.5186 49.666Z" stroke="#1D1D1B" stroke-width="0.7" stroke-linecap="round" stroke-linejoin="round"/>
<path d="M77.9693 41.7903C77.9693 41.7903 83.4907 39.4953 82.981 33.9026C82.4886 28.4783 77.4466 27.1779 77.4466 27.1779C77.4466 27.1779 78.7196 23.9656 77.8393 22.4429C76.6191 20.332 74.3245 20.9033 74.3245 20.9033C74.3245 20.9033 75.3701 16.6618 72.5525 14.8898C69.7349 13.1178 66.4824 14.5126 66.4824 14.5126C66.4824 14.5126 66.0757 8.23673 59.3654 6.87285C51.535 5.27954 48.3569 10.649 48.3569 10.649C48.3569 10.649 48.5599 7.628 45.1614 6.90165C41.7628 6.1753 39.7292 8.38316 39.7292 8.38316C39.7292 8.38316 38.9157 0.801399 29.2423 0.975613C19.569 1.14983 17.6204 9.80706 17.6204 9.80706C17.6204 9.80706 14.5833 6.44863 10.7067 8.76108C7.39487 10.7364 7.16269 15.0369 7.16269 15.0369C7.16269 15.0369 1.8176 15.2694 0.597411 19.9753C-0.622777 24.6813 3.09574 27.1217 3.09574 27.1217C3.09574 27.1217 -0.157748 29.9681 1.46883 32.8731C3.06728 35.7274 6.63971 34.9651 6.63971 34.9651C6.63971 34.9651 3.96716 40.8911 7.74364 44.6096C11.5201 48.3282 15.0483 47.8333 15.0483 47.8333C15.0483 47.8333 14.0044 51.1441 15.6879 53.0621C17.3714 54.9802 20.0453 54.5145 20.0453 54.5145C20.0453 54.5145 20.3787 57.6229 23.6033 56.2292C23.6033 56.2292 24.2573 63.811 33.4081 65.1183C42.5588 66.4256 47.3806 60.0057 47.3806 60.0057C47.3806 60.0057 49.9955 63.2736 53.7428 62.4457C57.4902 61.6179 57.4895 58.6099 57.4895 58.6099C57.4895 58.6099 59.4648 60.4398 60.8009 57.8256C60.8009 57.8256 66.9989 61.0801 71.3457 57.3897C75.8622 53.5553 73.699 47.8035 73.699 47.8035C73.699 47.8035 77.2868 48.4002 78.3328 46.466C79.6692 43.9982 77.9693 41.7903 77.9693 41.7903Z" stroke="black" stroke-width="0.7" stroke-linecap="round" stroke-linejoin="round"/>
<path d="M12.8407 21.3979C12.8407 21.3979 12.3177 20.0024 11.6205 18.4935C10.9233 16.9845 9.87767 16.489 7.96028 17.0411C5.60976 17.7178 6.33371 20.7593 6.33371 20.7593C6.33371 20.7593 8.12009 28.4413 8.64308 29.3724C9.16607 30.3035 10.2988 30.6797 11.4463 30.5199C12.0372 30.4376 13.5382 30.0261 13.9155 29.024C14.2282 28.1941 13.7992 26.2496 13.7992 26.2496" stroke="#1D1D1B" stroke-width="0.7" stroke-linecap="round" stroke-linejoin="round"/>
<path d="M40.7284 20.4386C40.8313 20.4938 39.2397 17.0267 38.2304 15.0935C37.4602 13.6189 37.4073 12.4217 34.541 12.7697C31.6747 13.1178 32.2992 15.9636 32.2992 15.9636C32.2992 15.9636 32.9988 24.518 33.3833 25.5129C33.7677 26.5078 35.4948 26.3957 35.9615 26.3555C36.5562 26.3048 37.3137 26.3487 37.882 25.6676C38.4502 24.9865 38.2887 23.2276 38.2887 23.2276" stroke="#1D1D1B" stroke-width="0.7" stroke-linecap="round" stroke-linejoin="round"/>
<path d="M11.9126 21.7456C11.9126 21.7456 14.556 20.7852 16.1829 20.7578" stroke="#1D1D1B" stroke-width="0.7" stroke-linecap="round" stroke-linejoin="round"/>
<path d="M12.8706 26.1624C12.8706 26.1624 15.717 25.7269 16.763 25.291" stroke="#1D1D1B" stroke-width="0.7" stroke-linecap="round" stroke-linejoin="round"/>
<path d="M18.2042 28.8445C17.7062 28.8699 17.2566 28.8003 16.9658 28.5732C16.1527 27.9381 15.7456 25.7988 15.7456 25.7988" stroke="#1D1D1B" stroke-width="0.7" stroke-linecap="round" stroke-linejoin="round"/>
<path d="M14.8303 20.6567C14.8303 20.6567 14.3948 18.0422 14.5254 17.1707C14.6561 16.2993 15.1427 15.5116 16.2401 15.2681C17.2861 15.0356 18.294 14.8627 19.0581 15.907C19.9295 17.098 21.2368 25.1449 21.4982 26.0163C21.7595 26.8878 21.5853 27.5414 21.018 27.9769" stroke="#1D1D1B" stroke-width="0.7" stroke-linecap="round" stroke-linejoin="round"/>
<path d="M20.0166 17.739C20.0166 17.739 21.3026 14.0983 25.2166 13.5551C29.3902 12.9766 32.4223 16.4509 32.7114 21.3694C33.0005 26.288 29.0871 27.6052 27.0322 27.8038C25.1391 27.9866 22.471 27.1502 21.5852 25.7269" stroke="#1D1D1B" stroke-width="0.7" stroke-linecap="round" stroke-linejoin="round"/>
<path d="M39.7408 17.9982C39.7408 17.9982 39.9154 14.5122 40.0896 13.9312C40.2638 13.3503 40.4579 12.7721 41.5032 12.5937C42.7035 12.3904 44.041 12.7484 44.041 12.7484C44.041 12.7484 44.564 12.8259 44.8253 13.5231C45.0866 14.2203 45.29 23.4291 44.9707 24.7652C44.6514 26.1013 42.4432 26.1027 41.688 26.0725C41.6249 26.0701 41.5601 26.0646 41.4939 26.0568C41.0467 26.0002 40.6184 25.8435 40.2401 25.5982C39.8622 25.353 39.5447 25.0255 39.3108 24.6404L37.6211 21.8897" stroke="#1D1D1B" stroke-width="0.7" stroke-linecap="round" stroke-linejoin="round"/>
<path d="M39.7856 38.1653C39.8055 38.6797 39.8474 39.3752 40.1324 40.0954C40.525 41.0872 42.2332 41.0042 42.7003 40.9699C43.2953 40.9264 44.0522 40.9795 44.6287 40.306C45.2052 39.6324 45.0656 37.8711 45.0656 37.8711" stroke="#1D1D1B" stroke-width="0.7" stroke-linecap="round" stroke-linejoin="round"/>
<path d="M47.5386 35.113C47.6415 35.1696 46.0921 31.6836 45.1068 29.7374C44.3551 28.2535 44.318 27.0556 41.4466 27.3684C40.8787 27.4301 40.4462 27.5913 40.1177 27.8097" stroke="#1D1D1B" stroke-width="0.7" stroke-linecap="round" stroke-linejoin="round"/>
<path d="M46.582 32.6606C46.582 32.6606 46.7994 29.177 46.9808 28.5985C47.1623 28.0199 47.3636 27.4438 48.4112 27.2795C49.6143 27.0912 50.9459 27.4657 50.9459 27.4657C50.9459 27.4657 51.4679 27.5497 51.7206 28.25C51.9734 28.9503 52.0636 38.161 51.7268 39.493C51.39 40.825 49.1832 40.7962 48.4284 40.7595C48.3656 40.7564 48.3008 40.7503 48.2346 40.7413C47.3306 40.6217 46.5367 40.0812 46.069 39.2982L44.4136 36.5266" stroke="#1D1D1B" stroke-width="0.7" stroke-linecap="round" stroke-linejoin="round"/>
<path d="M31.2276 41.4281C30.4886 40.9672 29.9142 40.2851 29.5859 39.4785" stroke="#1D1D1B" stroke-width="0.7" stroke-linecap="round" stroke-linejoin="round"/>
<path d="M27.7728 30.7609C27.6061 29.6041 27.5386 27.5856 29.6185 27.3829C33.2654 27.0276 31.5589 31.7592 32.4859 34.8933C32.4859 34.8933 33.0223 33.7867 34.416 33.693C35.8097 33.5994 36.2994 34.5847 36.2994 34.5847C36.2994 34.5847 35.4901 27.9357 37.2473 27.0653C38.7491 26.3215 39.9175 27.4721 40.1678 28.1734C40.6136 29.4186 39.9487 37.9277 39.471 39.2161C39.0807 40.2686 37.5093 41.8119 34.8385 42.091C34.6355 42.1116 34.4397 42.1253 34.2514 42.1322" stroke="#1D1D1B" stroke-width="0.7" stroke-linecap="round" stroke-linejoin="round"/>
<path d="M51.1875 40.4837C51.799 40.8181 52.6388 40.8867 52.9437 40.9062C53.5391 40.9439 54.2812 41.1 54.9448 40.5111C55.6084 39.9223 55.7092 38.1582 55.7092 38.1582" stroke="#1D1D1B" stroke-width="0.7" stroke-linecap="round" stroke-linejoin="round"/>
<path d="M58.5362 35.7625C58.6288 35.8311 57.5708 32.1671 56.8599 30.104C56.3173 28.5312 56.4446 27.3395 53.5566 27.2575C52.7195 27.2339 52.1417 27.4609 51.7432 27.796" stroke="#1D1D1B" stroke-width="0.7" stroke-linecap="round" stroke-linejoin="round"/>
<path d="M57.9209 33.2015C57.9209 33.2015 58.6112 29.78 58.8698 29.2313C59.1284 28.6826 59.4062 28.1397 60.4662 28.1198C61.684 28.0972 62.9522 28.65 62.9522 28.65C62.9522 28.65 63.4577 28.8043 63.6127 29.5324C63.7677 30.2605 62.601 39.3975 62.0866 40.6715C61.5722 41.9455 59.3887 41.6173 58.6462 41.4767C58.5845 41.4647 58.521 41.4496 58.4566 41.4321C57.5776 41.19 56.8646 40.5463 56.508 39.7071L55.2456 36.7373" stroke="#1D1D1B" stroke-width="0.7" stroke-linecap="round" stroke-linejoin="round"/>
<path d="M63.1259 49.7212C63.1259 49.7212 62.7192 54.6596 66.6116 53.9051C70.504 53.1506 71.8696 46.1203 69.6038 46.643C67.3379 47.1656 66.4665 51.2326 66.4665 51.2326C66.4665 51.2326 64.2587 46.4677 63.1259 49.7212Z" stroke="#1D1D1B" stroke-width="0.7" stroke-linecap="round" stroke-linejoin="round"/>
<path d="M23.7348 7.30941C23.7348 7.30941 23.3281 12.2478 27.2205 11.4933C31.1129 10.7388 32.4785 3.70851 30.2127 4.23082C27.9468 4.75312 27.0754 8.82075 27.0754 8.82075C27.0754 8.82075 24.8675 4.05626 23.7348 7.30941Z" stroke="#1D1D1B" stroke-width="0.7" stroke-linecap="round" stroke-linejoin="round"/>
<path d="M45.0562 24.4779C45.241 25.4607 46.1765 25.8462 47.0836 26.0365C47.5329 26.1305 50.3145 26.5626 52.2669 26.5132C53.1119 26.4919 53.9095 25.948 54.0934 25.1233C54.2991 24.2021 53.9788 23.4178 53.3543 22.997C52.6396 22.5169 49.0648 22.3581 49.0648 22.3581L49.1811 21.3412C49.1811 21.3412 52.1842 21.7076 53.365 21.4283C54.2652 21.2153 54.3718 19.7496 54.1839 19.2551C53.9167 18.5524 53.1654 18.3531 52.6095 18.291C52.0535 18.229 49.763 17.8552 49.763 17.8552L50.0244 16.7235C50.0244 16.7235 53.4442 17.0688 54.0913 17.0431C55.5437 16.9848 55.6455 15.9683 55.6891 15.0965C55.7326 14.2248 55.3118 13.6442 54.5272 13.3246C54.1952 13.1894 52.8516 12.8986 51.3316 12.7436C49.8117 12.5886 48.2815 12.6274 48.2815 12.6274C45.9286 12.7436 45.7095 14.9079 45.7095 14.9079C45.7095 14.9079 45.2444 17.3624 45.0994 18.1614" stroke="#1D1D1B" stroke-width="0.7" stroke-linecap="round" stroke-linejoin="round"/>
<path d="M55.4089 13.9512C55.4089 13.9512 55.5736 13.7283 56.1837 13.5977C56.7937 13.467 58.7982 13.6412 59.2338 14.4691C59.6693 15.2969 59.2338 18.9136 59.2773 19.4802C59.3209 20.0467 59.931 20.4404 60.3233 20.2209C60.7156 20.0014 62.3669 15.8998 63.417 15.3405C64.5062 14.7596 66.438 15.7037 66.8303 16.9674C67.2226 18.2312 61.8192 27.3525 60.5428 27.9335C59.6227 28.3519 58.3785 28.3838 57.4635 27.4688C56.5485 26.5538 57.3473 23.6344 57.3473 23.6344C57.3473 23.6344 55.5026 23.5315 54.9216 22.0945C54.3451 20.6678 54.5828 18.0134 54.7135 17.1852" stroke="#1D1D1B" stroke-width="0.7" stroke-linecap="round" stroke-linejoin="round"/>
<path d="M63.6624 29.2406C63.6624 29.2406 63.5979 29.172 64.2094 29.0475C64.8208 28.923 66.8233 29.1236 67.2485 29.9567C67.6738 30.7897 67.1936 34.4008 67.2303 34.9677C67.267 35.5346 67.872 35.9345 68.2667 35.7222C68.6614 35.5099 70.3638 31.4275 71.4218 30.8805C72.5192 30.313 74.4397 31.2811 74.8145 32.5493C75.1893 33.8175 69.6755 42.8718 68.3902 43.437C67.4642 43.8437 66.2207 43.8602 65.3171 42.9339C64.4134 42.0076 65.2485 39.0985 65.2485 39.0985C65.2485 39.0985 63.4055 38.974 62.8424 37.5288C62.8081 37.4417 62.8037 37.4407 62.7632 37.3316" stroke="#1D1D1B" stroke-width="0.7" stroke-linecap="round" stroke-linejoin="round"/>
<path d="M31.4766 37.3262L33.0767 38.2748" stroke="#1D1D1B" stroke-width="0.7" stroke-linecap="round" stroke-linejoin="round"/>
<path d="M31.7319 38.6713L32.6791 36.8945" stroke="#1D1D1B" stroke-width="0.7" stroke-linecap="round" stroke-linejoin="round"/>
<path d="M37.5143 36.9473L35.9248 37.9123" stroke="#1D1D1B" stroke-width="0.7" stroke-linecap="round" stroke-linejoin="round"/>
<path d="M37.274 38.2942L36.3076 36.5273" stroke="#1D1D1B" stroke-width="0.7" stroke-linecap="round" stroke-linejoin="round"/>
<path d="M26.6633 34.5154C26.6633 34.5154 29.1009 35.0298 29.4689 37.6671C29.8009 40.0471 29.1222 41.2127 27.6479 42.1647C26.2874 43.0434 23.6011 43.1593 21.597 43.257C19.5928 43.3548 19.064 42.1956 18.7677 41.1225C18.6343 40.639 17.4453 32.763 17.4453 32.763C17.4453 32.763 16.8894 30.4207 18.0074 29.158C18.9889 28.0489 23.1478 27.5225 24.9136 27.7269C26.832 27.9491 29.5262 32.06 26.6633 34.5154Z" stroke="#1D1D1B" stroke-width="0.7" stroke-linecap="round" stroke-linejoin="round"/>
<path d="M33.9595 39.0101L35.3144 38.9258L34.7404 40.2262L33.9595 39.0101Z" fill="#1D1D1B"/>
<path d="M47.9621 52.6047C47.9665 52.4114 47.8134 52.2512 47.6202 52.2468C47.4269 52.2424 47.2667 52.3956 47.2623 52.5888L47.9621 52.6047ZM47.9411 54.1057L48.2738 53.997L48.2738 53.9968L47.9411 54.1057ZM50.4508 55.1345L50.4465 54.7845L50.4462 54.7845L50.4508 55.1345ZM53.3508 52.1792C53.3473 51.986 53.1878 51.8321 52.9946 51.8356C52.8013 51.8391 52.6475 51.9986 52.6509 52.1919L53.3508 52.1792ZM47.2623 52.5888C47.2491 53.1744 47.3727 53.4941 47.6085 54.2145L48.2738 53.9968C48.0287 53.248 47.9521 53.0479 47.9621 52.6047L47.2623 52.5888ZM47.6084 54.2144C47.8336 54.9035 48.5075 55.2047 49.0601 55.3422C49.6328 55.4847 50.2144 55.4877 50.4554 55.4845L50.4462 54.7845C50.2191 54.7875 49.7114 54.7829 49.2291 54.6629C48.7267 54.5379 48.3799 54.3215 48.2738 53.997L47.6084 54.2144ZM50.455 55.4845C50.9867 55.4781 51.9262 55.5993 52.6677 54.8326L52.1646 54.3459C51.6729 54.8543 51.1083 54.7765 50.4465 54.7845L50.455 55.4845ZM52.6677 54.8326C52.8746 54.6187 53.009 54.3319 53.1002 54.0538C53.193 53.7709 53.2505 53.4674 53.2867 53.1943C53.3231 52.9199 53.3391 52.6678 53.346 52.4847C53.3495 52.3929 53.3507 52.3177 53.351 52.265C53.3512 52.2387 53.3512 52.2178 53.3511 52.2033C53.351 52.1961 53.351 52.1904 53.3509 52.1863C53.3509 52.1843 53.3509 52.1827 53.3509 52.1815C53.3509 52.1809 53.3508 52.1804 53.3508 52.18C53.3508 52.1798 53.3508 52.1797 53.3508 52.1796C53.3508 52.1795 53.3508 52.1794 53.3508 52.1794C53.3508 52.1793 53.3508 52.1792 53.0009 52.1855C52.6509 52.1919 52.6509 52.1918 52.6509 52.1918C52.6509 52.1918 52.6509 52.1917 52.6509 52.1917C52.6509 52.1917 52.6509 52.1917 52.6509 52.1917C52.6509 52.1917 52.6509 52.1919 52.6509 52.1922C52.651 52.1927 52.651 52.1936 52.651 52.195C52.651 52.1976 52.6511 52.2019 52.6511 52.2078C52.6512 52.2194 52.6512 52.2372 52.6511 52.2603C52.6507 52.3067 52.6497 52.3745 52.6465 52.4582C52.6401 52.6262 52.6255 52.8555 52.5928 53.1023C52.5599 53.3505 52.5098 53.608 52.4351 53.8356C52.3589 54.068 52.2661 54.241 52.1646 54.3459L52.6677 54.8326Z" fill="#1D1D1B"/>
<path d="M55.6396 49.5857C55.737 49.6481 54.405 46.0736 53.5401 44.0715C52.8803 42.5444 52.9173 41.3465 50.0315 41.4833C49.4608 41.5104 49.0195 41.6448 48.6782 41.8431" stroke="#1D1D1B" stroke-width="0.7" stroke-linecap="round" stroke-linejoin="round"/>
<path d="M54.8343 47.0786C54.8343 47.0786 55.2636 43.6149 55.4804 43.0484C55.6971 42.4818 55.9327 41.9194 56.9893 41.8193C58.2016 41.7047 59.5079 42.1598 59.5079 42.1598C59.5079 42.1598 60.0223 42.2757 60.2332 42.9901C60.4441 43.7044 59.9705 52.9032 59.5535 54.2125C59.1365 55.5219 56.9351 55.3597 56.1841 55.2756C56.1213 55.2688 56.0572 55.2585 55.9917 55.2458C55.55 55.1566 55.134 54.9687 54.775 54.6964C54.4162 54.4241 54.123 54.0743 53.9183 53.6731L52.4351 50.8057" stroke="#1D1D1B" stroke-width="0.7" stroke-linecap="round" stroke-linejoin="round"/>
<path d="M28.2081 41.7603C28.6176 41.6502 29.2479 41.5545 29.6896 41.4989C30.9219 41.3467 32.2346 41.547 33.0121 41.6272C34.8605 41.8186 37.5259 46.0635 34.6085 48.4535C34.6085 48.4535 37.0334 49.0227 37.3421 51.6675C37.6202 54.0547 36.7625 55.134 35.2673 56.0527C33.8869 56.9005 31.0261 57.1563 29.3456 57.0785C27.3415 56.9859 26.8373 55.9601 26.5654 54.8805C26.443 54.3942 25.4337 46.4935 25.4337 46.4935C25.4337 46.4935 24.9306 44.1393 26.0767 42.9019" stroke="#1D1D1B" stroke-width="0.7" stroke-linecap="round" stroke-linejoin="round"/>
<path d="M35.8042 45.8223C35.8042 45.8223 35.8865 48.3642 36.3124 49.371" stroke="#1D1D1B" stroke-width="0.7" stroke-linecap="round" stroke-linejoin="round"/>
<path d="M27.9277 32.2129C27.9277 32.2129 28.0803 34.5672 28.5718 35.5439" stroke="#1D1D1B" stroke-width="0.7" stroke-linecap="round" stroke-linejoin="round"/>
<path d="M37.603 53.5948C37.9308 54.4014 38.5056 55.0839 39.2446 55.5445C39.2446 55.5445 40.5698 56.3367 42.2684 56.2454C42.457 56.2352 42.6528 56.2252 42.8558 56.2043C45.5267 55.9251 47.098 54.3819 47.4883 53.3294C47.966 52.0413 48.6296 43.5322 48.1851 42.2867C47.9345 41.5854 46.7664 40.4348 45.2643 41.1786C43.5074 42.049 44.3168 48.698 44.3168 48.698C44.3168 48.698 43.8274 47.7127 42.4333 47.8063C41.0393 47.9 40.5032 49.0066 40.5032 49.0066C39.5773 45.8742 41.2824 41.1426 37.6359 41.4979C35.556 41.7006 35.6232 43.7191 35.7898 44.8759" stroke="#1D1D1B" stroke-width="0.7" stroke-linecap="round" stroke-linejoin="round"/>
<path d="M39.4946 51.4453L41.0945 52.3939" stroke="#1D1D1B" stroke-width="0.7" stroke-linecap="round" stroke-linejoin="round"/>
<path d="M39.749 52.7905L40.6966 51.0137" stroke="#1D1D1B" stroke-width="0.7" stroke-linecap="round" stroke-linejoin="round"/>
<path d="M45.5314 51.0645L43.9419 52.0295" stroke="#1D1D1B" stroke-width="0.7" stroke-linecap="round" stroke-linejoin="round"/>
<path d="M45.2908 52.4114L44.3247 50.6445" stroke="#1D1D1B" stroke-width="0.7" stroke-linecap="round" stroke-linejoin="round"/>
<path d="M41.978 53.1273L43.3333 53.043L42.7593 54.3434L41.978 53.1273Z" fill="#1D1D1B"/>
<path d="M35.9448 46.332C35.9448 46.332 36.0974 48.6863 36.5889 49.663" stroke="#1D1D1B" stroke-width="0.7" stroke-linecap="round" stroke-linejoin="round"/>
<path d="M26.3961 16.5312L27.3255 17.9064L28.985 17.9202L27.9648 19.2288L28.4644 20.8115L26.9044 20.2453L25.5535 21.2097L25.6098 19.5512L24.2754 18.5646L25.8701 18.1054L26.3961 16.5312Z" stroke="#1D1D1B" stroke-width="0.7" stroke-linecap="round" stroke-linejoin="round"/>
<path d="M22.4011 29.4766L23.1908 30.6367L24.6034 30.6467L23.7337 31.7527L24.1573 33.0884L22.8301 32.6117L21.6792 33.4273L21.7285 32.027L20.5938 31.195L21.9518 30.8061L22.4011 29.4766Z" stroke="#1D1D1B" stroke-width="0.7" stroke-linecap="round" stroke-linejoin="round"/>
<path d="M23.818 35.8789L24.7474 37.2541L26.4069 37.2678L25.3866 38.5765L25.8863 40.1592L24.3263 39.5933L22.9754 40.5573L23.0317 38.8989L21.6973 37.9122L23.2919 37.453L23.818 35.8789Z" stroke="#1D1D1B" stroke-width="0.7" stroke-linecap="round" stroke-linejoin="round"/>
</svg>
